<?xml version="1.0" encoding="UTF-8" standalone="no"?>
<!-- Created with Inkscape (http://www.inkscape.org/) -->

<svg
   width="100"
   height="100"
   viewBox="0 0 100 100"
   version="1.1"
   id="svg5"
   xmlnsvg="http://www.w3.org/2000/svg"
   xmlnSvg="http://www.w3.org/2000/svg"
   xmlns="http://www.w3.org/2000/svg"
   xmlnssvg="http://www.w3.org/2000/svg">
  <defs
     id="defs2" />
  <g
     id="layer1"
     transform="matrix(1.7745453,0,0,1.7445527,-38.727271,-0.08802384)">
    <path
       style="opacity:0.421;fill:#ff0000;fill-opacity:0.419608;stroke:#000000;stroke-width:0.162402;stroke-opacity:0"
       d=""
       id="path1742" />
    <path
       style="opacity:0.421;fill:#ff0000;fill-opacity:0.419608;stroke:#000000;stroke-width:0.162402;stroke-opacity:0"
       d=""
       id="path1746" />
    <path
       style="opacity:0.421;fill:#ff0000;fill-opacity:0.419608;stroke:#000000;stroke-width:0.162402;stroke-opacity:0"
       d=""
       id="path1748" />
    <path
       style="opacity:0.421;fill:#ff0000;fill-opacity:0.419608;stroke:#000000;stroke-width:0.162402;stroke-opacity:0"
       d=""
       id="path1750" />
    <rect
       style="opacity:0.421;fill:#2117d1;fill-opacity:0.521569;stroke:#000000;stroke-width:0.396258;stroke-opacity:0"
       id="rect6673"
       width="3.3597884"
       height="15.761994"
       x="48.320107"
       y="0.19812919" />
    <path
       style="opacity:0.421;fill:#2117d1;fill-opacity:0.521569;stroke:#000000;stroke-width:0.115082;stroke-opacity:0"
       d="m 47.470899,45.93411 c -1.806864,-0.376413 -3.327752,-1.024304 -4.951453,-2.109294 -3.205855,-2.142215 -5.544398,-5.761979 -6.335891,-9.80714 -0.27175,-1.388857 -0.269955,-4.543904 0.0034,-5.942016 1.297655,-6.63754 6.428431,-11.517812 12.682409,-12.063203 9.369524,-0.817091 16.824818,8.370788 14.82422,18.269315 -0.310234,1.534966 -0.570669,2.296362 -1.304954,3.815104 -1.820974,3.766372 -5.067718,6.504457 -9.030354,7.615595 -0.93262,0.26151 -1.35092,0.308142 -3.088327,0.344288 -1.437775,0.02991 -2.23423,-0.005 -2.79903,-0.122649 z"
       id="path9708" />
    <rect
       style="opacity:0.421;fill:#2117d1;fill-opacity:0.521569;stroke:#000000;stroke-width:0.396258;stroke-opacity:0"
       id="rect9768"
       width="3.3597884"
       height="15.761994"
       x="48.320107"
       y="0.19812919" />
    <rect
       style="opacity:0.421;fill:#2117d1;fill-opacity:0.521569;stroke:#000000;stroke-width:0.396258;stroke-opacity:0"
       id="rect9770"
       width="3.3597884"
       height="15.761994"
       x="48.320107"
       y="0.19812919" />
    <path
       style="opacity:0.421;fill:#2117d1;fill-opacity:0.521569;stroke:#000000;stroke-width:0.115082;stroke-opacity:0"
       d="m 47.470899,45.93411 c -1.806864,-0.376413 -3.327752,-1.024304 -4.951453,-2.109294 -3.205855,-2.142215 -5.544398,-5.761979 -6.335891,-9.80714 -0.27175,-1.388857 -0.269955,-4.543904 0.0034,-5.942016 1.297655,-6.63754 6.428431,-11.517812 12.682409,-12.063203 9.369524,-0.817091 16.824818,8.370788 14.82422,18.269315 -0.310234,1.534966 -0.570669,2.296362 -1.304954,3.815104 -1.820974,3.766372 -5.067718,6.504457 -9.030354,7.615595 -0.93262,0.26151 -1.35092,0.308142 -3.088327,0.344288 -1.437775,0.02991 -2.23423,-0.005 -2.79903,-0.122649 z"
       id="path1429" />
    <path
       style="opacity:0.421;fill:#2117d1;fill-opacity:0.521569;stroke:#000000;stroke-width:0.115082;stroke-opacity:0"
       d="m 47.470899,45.93411 c -1.806864,-0.376413 -3.327752,-1.024304 -4.951453,-2.109294 -3.205855,-2.142215 -5.544398,-5.761979 -6.335891,-9.80714 -0.27175,-1.388857 -0.269955,-4.543904 0.0034,-5.942016 1.297655,-6.63754 6.428431,-11.517812 12.682409,-12.063203 9.369524,-0.817091 16.824818,8.370788 14.82422,18.269315 -0.310234,1.534966 -0.570669,2.296362 -1.304954,3.815104 -1.820974,3.766372 -5.067718,6.504457 -9.030354,7.615595 -0.93262,0.26151 -1.35092,0.308142 -3.088327,0.344288 -1.437775,0.02991 -2.23423,-0.005 -2.79903,-0.122649 z"
       id="path1431" />
  </g>
</svg>
