<?xml version="1.0" encoding="UTF-8" standalone="no"?>
<!-- Created with Inkscape (http://www.inkscape.org/) -->

<svg
   width="100"
   height="100"
   viewBox="0 0 100 100"
   version="1.1"
   id="svg5"
   xmlnsvg="http://www.w3.org/2000/svg"
   xmlns="http://www.w3.org/2000/svg"
   xmlnSvg="http://www.w3.org/2000/svg">
  <defs
     id="defs2" />
  <g
     id="layer1">
    <path
       style="opacity:0.421;fill:#ff0000;fill-opacity:0.419608;stroke:#000000;stroke-width:0.252454;stroke-opacity:0"
       d=""
       id="path1742" />
    <path
       style="opacity:0.421;fill:#ff0000;fill-opacity:0.419608;stroke:#000000;stroke-width:0.252454;stroke-opacity:0"
       d=""
       id="path1746" />
    <path
       style="opacity:0.421;fill:#ff0000;fill-opacity:0.419608;stroke:#000000;stroke-width:0.252454;stroke-opacity:0"
       d=""
       id="path1748" />
    <path
       style="opacity:0.421;fill:#ff0000;fill-opacity:0.419608;stroke:#000000;stroke-width:0.252454;stroke-opacity:0"
       d=""
       id="path1750" />
    <path
       style="opacity:0.421;fill:#ff0000;fill-opacity:0.419608;stroke:#000000;stroke-width:0.0924311;stroke-opacity:0"
       d="m 48.498131,91.480578 v -8.473204 h 1.551776 1.55177 v 8.473204 8.47321 h -1.55177 -1.551776 z"
       id="path9766" />
    <path
       style="opacity:0.421;fill:#ff0000;fill-opacity:0.419608;stroke:#000000;stroke-width:0.0581476;stroke-opacity:0"
       d="m 73.959209,86.661402 -6.142421,-4.333582 0.963094,-0.167688 0.963095,-0.167688 6.142432,4.333584 6.14241,4.333582 -0.96308,0.16769 -0.9631,0.167687 z"
       id="path9780" />
    <path
       style="opacity:0.421;fill:#ff0000;fill-opacity:0.419608;stroke:#000000;stroke-width:0.0581476;stroke-opacity:0"
       d="m 90.794829,81.638573 -7.35763,-4.039359 0.90851,-0.208479 0.90849,-0.208477 7.35763,4.03936 7.35764,4.039361 -0.90851,0.208476 -0.90849,0.208477 z"
       id="path9782" />
    <path
       style="opacity:0.421;fill:#ff0000;fill-opacity:0.419608;stroke:#000000;stroke-width:0.0581476;stroke-opacity:0"
       d="m 24.531068,86.343091 6.269051,-4.306267 0.875207,0.228869 0.87521,0.228867 -6.269053,4.306264 -6.269053,4.306269 -0.875206,-0.228869 -0.875212,-0.228866 z"
       id="path9792" />
    <path
       style="opacity:0.421;fill:#ff0000;fill-opacity:0.419608;stroke:#000000;stroke-width:0.0581476;stroke-opacity:0"
       d="m 8.3485299,81.591093 8.2736011,-3.763826 0.74649,0.289357 0.746487,0.289358 -8.2736101,3.763824 -8.273605,3.763827 -0.74649099,-0.289357 -0.746483,-0.289355 z"
       id="path9798" />
    <path
       style="opacity:0.421;fill:#ff0000;fill-opacity:0.419608;stroke:#000000;stroke-width:0.201976;stroke-opacity:0"
       d="M 45.509653,79.6686 C 42.300671,79.01577 39.599581,77.8921 36.715889,76.01034 31.022301,72.294987 26.869054,66.017042 25.463365,59.001305 24.980741,56.592539 24.983926,51.120578 25.469459,48.695759 27.774088,37.183923 36.886331,28.719812 47.993379,27.773913 64.633622,26.35679 77.874206,42.29181 74.32114,59.45934 c -0.55097,2.662172 -1.013503,3.982701 -2.317589,6.616734 -3.234042,6.53222 -9.000253,11.281026 -16.037883,13.208126 -1.656328,0.45355 -2.399225,0.53443 -5.484861,0.59712 -2.553478,0.0519 -3.96798,-0.008 -4.971065,-0.21272 z"
       id="path1511" />
    <path
       id="path1515"
       style="opacity:0.421;fill:#2117d1;fill-opacity:0.521569;stroke:#000000;stroke-width:0.695777;stroke-opacity:0"
       d="m 47.012889,0.34788848 h 5.974222 V 27.677112 h -5.974222 z" />
    <path
       style="opacity:0.421;fill:#ff0000;fill-opacity:0.419608;stroke:#000000;stroke-width:0.0581476;stroke-opacity:0"
       d="m 8.3485299,81.591093 8.2736011,-3.763826 0.74649,0.289357 0.746487,0.289358 -8.2736101,3.763824 -8.273605,3.763827 -0.74649099,-0.289357 -0.746483,-0.289355 z"
       id="path1517" />
    <path
       style="opacity:0.421;fill:#ff0000;fill-opacity:0.419608;stroke:#000000;stroke-width:0.0581476;stroke-opacity:0"
       d="m 8.3485299,81.591093 8.2736011,-3.763826 0.74649,0.289357 0.746487,0.289358 -8.2736101,3.763824 -8.273605,3.763827 -0.74649099,-0.289357 -0.746483,-0.289355 z"
       id="path1519" />
    <path
       style="opacity:0.421;fill:#ff0000;fill-opacity:0.419608;stroke:#000000;stroke-width:0.0581476;stroke-opacity:0"
       d="m 24.531068,86.343091 6.269051,-4.306267 0.875207,0.228869 0.87521,0.228867 -6.269053,4.306264 -6.269053,4.306269 -0.875206,-0.228869 -0.875212,-0.228866 z"
       id="path1521" />
    <path
       style="opacity:0.421;fill:#ff0000;fill-opacity:0.419608;stroke:#000000;stroke-width:0.0581476;stroke-opacity:0"
       d="m 24.531068,86.343091 6.269051,-4.306267 0.875207,0.228869 0.87521,0.228867 -6.269053,4.306264 -6.269053,4.306269 -0.875206,-0.228869 -0.875212,-0.228866 z"
       id="path1523" />
    <path
       style="opacity:0.421;fill:#ff0000;fill-opacity:0.419608;stroke:#000000;stroke-width:0.0924311;stroke-opacity:0"
       d="m 48.498131,91.480578 v -8.473204 h 1.551776 1.55177 v 8.473204 8.47321 h -1.55177 -1.551776 z"
       id="path1525" />
    <path
       style="opacity:0.421;fill:#ff0000;fill-opacity:0.419608;stroke:#000000;stroke-width:0.0924311;stroke-opacity:0"
       d="m 48.498131,91.480578 v -8.473204 h 1.551776 1.55177 v 8.473204 8.47321 h -1.55177 -1.551776 z"
       id="path1527" />
    <path
       style="opacity:0.421;fill:#ff0000;fill-opacity:0.419608;stroke:#000000;stroke-width:0.0581476;stroke-opacity:0"
       d="m 73.959209,86.661402 -6.142421,-4.333582 0.963094,-0.167688 0.963095,-0.167688 6.142432,4.333584 6.14241,4.333582 -0.96308,0.16769 -0.9631,0.167687 z"
       id="path1529" />
    <path
       style="opacity:0.421;fill:#ff0000;fill-opacity:0.419608;stroke:#000000;stroke-width:0.0581476;stroke-opacity:0"
       d="m 73.959209,86.661402 -6.142421,-4.333582 0.963094,-0.167688 0.963095,-0.167688 6.142432,4.333584 6.14241,4.333582 -0.96308,0.16769 -0.9631,0.167687 z"
       id="path1531" />
    <path
       style="opacity:0.421;fill:#ff0000;fill-opacity:0.419608;stroke:#000000;stroke-width:0.0581476;stroke-opacity:0"
       d="m 90.794829,81.638573 -7.35763,-4.039359 0.90851,-0.208479 0.90849,-0.208477 7.35763,4.03936 7.35764,4.039361 -0.90851,0.208476 -0.90849,0.208477 z"
       id="path1533" />
    <path
       style="opacity:0.421;fill:#ff0000;fill-opacity:0.419608;stroke:#000000;stroke-width:0.0581476;stroke-opacity:0"
       d="m 90.794829,81.638573 -7.35763,-4.039359 0.90851,-0.208479 0.90849,-0.208477 7.35763,4.03936 7.35764,4.039361 -0.90851,0.208476 -0.90849,0.208477 z"
       id="path1535" />
    <path
       id="path1652"
       style="opacity:0.421;fill:#2117d1;fill-opacity:0.521569;stroke:#000000;stroke-width:0.695777;stroke-opacity:0"
       d="m 47.012889,0.34788848 h 5.974222 V 27.677112 h -5.974222 z" />
    <path
       id="path1654"
       style="opacity:0.421;fill:#2117d1;fill-opacity:0.521569;stroke:#000000;stroke-width:0.695777;stroke-opacity:0"
       d="m 47.012889,0.34788848 h 5.974222 V 27.677112 h -5.974222 z" />
    <path
       style="opacity:0.421;fill:#ff0000;fill-opacity:0.419608;stroke:#000000;stroke-width:0.201976;stroke-opacity:0"
       d="M 45.509653,79.6686 C 42.300671,79.01577 39.599581,77.8921 36.715889,76.01034 31.022301,72.294987 26.869054,66.017042 25.463365,59.001305 24.980741,56.592539 24.983926,51.120578 25.469459,48.695759 27.774088,37.183923 36.886331,28.719812 47.993379,27.773913 64.633622,26.35679 77.874206,42.29181 74.32114,59.45934 c -0.55097,2.662172 -1.013503,3.982701 -2.317589,6.616734 -3.234042,6.53222 -9.000253,11.281026 -16.037883,13.208126 -1.656328,0.45355 -2.399225,0.53443 -5.484861,0.59712 -2.553478,0.0519 -3.96798,-0.008 -4.971065,-0.21272 z"
       id="path1656" />
    <path
       style="opacity:0.421;fill:#ff0000;fill-opacity:0.419608;stroke:#000000;stroke-width:0.201976;stroke-opacity:0"
       d="M 45.509653,79.6686 C 42.300671,79.01577 39.599581,77.8921 36.715889,76.01034 31.022301,72.294987 26.869054,66.017042 25.463365,59.001305 24.980741,56.592539 24.983926,51.120578 25.469459,48.695759 27.774088,37.183923 36.886331,28.719812 47.993379,27.773913 64.633622,26.35679 77.874206,42.29181 74.32114,59.45934 c -0.55097,2.662172 -1.013503,3.982701 -2.317589,6.616734 -3.234042,6.53222 -9.000253,11.281026 -16.037883,13.208126 -1.656328,0.45355 -2.399225,0.53443 -5.484861,0.59712 -2.553478,0.0519 -3.96798,-0.008 -4.971065,-0.21272 z"
       id="path1658" />
  </g>
</svg>
