<?xml version="1.0" encoding="UTF-8" standalone="no"?>
<!-- Created with Inkscape (http://www.inkscape.org/) -->

<svg
   width="300"
   height="150"
   viewBox="0 0 300 150"
   version="1.1"
   id="svg11177"
   xmlnssvg="http://www.w3.org/2000/svg"
   xmlnsSvg="http://www.w3.org/2000/svg"
   xmlns="http://www.w3.org/2000/svg"
   xmlnsvg="http://www.w3.org/2000/svg">
  <defs
     id="defs11174" />
  <path
     id="path1701"
     style="opacity:0.421;fill:#ff0000;stroke-width:0.445469"
     d="m 213.21059,72.803278 h -6.44823 c -0.005,1.765304 -0.26115,3.670585 -0.70176,5.214939 -0.20156,0.706538 -0.44165,1.337543 -0.71375,1.84502 -0.29131,0.586899 -0.65733,1.118727 -1.05086,1.542603 l 3.13553,10.706369 3.13552,10.706361 c 1.54448,-1.62368 2.95358,-3.703124 4.18005,-6.18551 1.00791,-2.080921 1.86767,-4.342251 2.57277,-6.735993 1.54121,-5.232215 2.34353,-11.097124 2.33897,-17.093789 z m -7.37508,20.687033 -2.17886,-11.511091 c -0.43135,0.311026 -0.86553,0.471267 -1.24732,0.418877 -0.28612,0.03923 -0.60169,-0.04082 -0.92344,-0.214473 -0.73011,-0.393856 -1.49206,-1.268684 -2.01408,-2.320375 -0.0166,-0.03095 -0.033,-0.06228 -0.0493,-0.0941 l -4.7667,8.240852 -4.76669,8.240858 c 0.0603,0.128076 0.12112,0.25547 0.18251,0.382203 2.1978,4.448358 4.98202,7.602838 8.0809,9.159338 1.36559,0.68592 2.7923,1.06151 4.25686,1.10076 1.95415,-0.0523 3.8409,-0.70356 5.60503,-1.89172 z m -12.25316,-8.109 5.37612,-6.723269 c -0.49191,-1.430702 -0.80954,-3.294068 -0.88489,-5.089193 -0.0108,-0.257075 -0.0166,-0.512749 -0.0172,-0.765571 0.004,-1.512482 0.19282,-3.127739 0.52397,-4.530689 l -5.849,-5.138853 -5.84899,-5.138841 c -1.13796,4.629366 -1.72638,9.670512 -1.72248,14.808383 -3.9e-4,0.858787 0.0153,1.714868 0.0475,2.56679 0.22516,5.948649 1.24745,11.693792 2.9989,16.734512 z m 2e-5,-25.156116 5.3761,6.723307 c 0.1546,-0.449653 0.32643,-0.856567 0.51334,-1.205172 0.36821,-0.741836 0.8558,-1.395677 1.3674,-1.854785 0.5333,-0.478596 1.09269,-0.745582 1.57012,-0.680076 0.19049,-0.02619 0.394,6.12e-4 0.60371,0.07272 l 1.13199,-12.02494 1.132,-12.024933 c -0.93455,-0.316562 -1.89273,-0.491748 -2.8677,-0.517883 -2.44374,0.06551 -4.7821,1.067446 -6.90704,2.884922 -2.03843,1.743478 -3.88045,4.237447 -5.43072,7.375168 -0.69238,1.429513 -1.31486,2.944154 -1.86532,4.528379 z m 12.25318,-8.108928 -2.17888,11.511091 c 0.62551,0.451044 1.24507,1.219207 1.69018,2.115972 0.10175,0.189768 0.19902,0.396813 0.29148,0.618619 0.54043,1.296497 0.91633,3.097398 1.05967,4.901802 l 6.38388,-1.784503 6.38388,-1.784491 c -0.45208,-5.880075 -1.69157,-11.484926 -3.65045,-16.313614 -0.33513,-0.826103 -0.69132,-1.629483 -1.06822,-2.407637 -1.87402,-3.793003 -4.17439,-6.645288 -6.73265,-8.368329 z" />
  <g
     aria-label="Y - BL    G"
     transform="matrix(0.32450214,0,0,0.82103865,11.141091,3.2120522)"
     id="text2285"
     style="font-size:122.409px;font-family:'Sigmar One';-inkscape-font-specification:'Sigmar One, Normal';text-align:center;text-orientation:upright;text-anchor:middle;opacity:0.421;fill:#1117bb;fill-opacity:1;stroke-width:1.2751">
    <path
       d="m 183.64446,135.66648 q 0,0 -0.24482,0 -0.1224,0 -0.24481,0.12241 l -0.36723,0.12241 q -0.36723,0 -0.36723,-0.24482 -0.48963,-0.24482 -0.61204,-0.73445 -4.28432,-0.73446 -5.50841,-1.22409 l -4.28431,-1.22409 h -0.61205 q -0.61204,0 -0.97927,-0.24482 -1.10168,0 -1.83613,-0.24482 -0.97928,-0.12241 -3.18264,-0.85686 -2.20336,-0.73446 -3.18263,-1.10168 -1.95855,-0.61205 -5.63082,-2.08096 -1.71372,-0.73445 -2.57058,-0.97927 l -2.81541,-1.71372 q -0.97927,-0.73446 -0.97927,-1.46891 0,-2.32577 1.10168,-4.89636 0.36722,-0.85687 0.97927,-2.08096 0.73445,-1.22409 1.3465,-2.8154 0.24482,-0.73446 1.3465,-2.20336 2.93781,-4.89636 3.18263,-5.386 0.48964,-1.3465 0.48964,-2.44818 0,-1.83613 -1.95855,-3.79468 -1.83613,-1.836134 -1.83613,-3.54986 -0.61205,0 -0.61205,0.122409 h -0.24481 -0.12241 q -0.24482,-0.244818 -0.24482,-0.489636 -3.91709,-4.89636 -7.95659,-11.873672 -5.14117,-8.078994 -8.32381,-14.68908 -0.97927,-1.468908 -2.32577,-5.263587 -1.59132,-3.305043 -2.693,-6.732495 -1.3465,-3.794679 -1.3465,-4.89636 0,-1.224089 2.693,-3.182633 1.10168,-0.734454 2.57059,-1.468908 1.46891,-0.734454 2.20336,-1.101681 0.61205,-0.122409 5.14118,-1.346499 l 1.71373,-0.612045 q 0.48963,-0.367227 1.10168,-0.367227 0.73445,0 2.32577,-0.489636 3.54986,-0.734454 4.1619,-0.979272 l 4.40673,-0.979272 q 3.67227,-1.22409 4.28431,-1.346499 l 0.24482,-0.122409 h 0.36723 0.24482 q 2.57058,0 3.42745,1.22409 0.73445,0.734454 2.44818,3.427452 0.24482,0.734454 0.85686,1.713726 0.73445,0.979272 0.97927,1.22409 l 0.97927,1.346499 0.85687,0.979272 q 0.48963,0.612045 0.97927,1.468907 0.48964,0.856863 1.10168,1.836135 3.18263,5.630814 4.89636,7.956585 1.10168,1.591317 1.83614,1.591317 0.36722,0 1.22409,-1.346499 1.10168,-1.713726 4.03949,-7.834176 1.59132,-3.917087 3.79468,-8.935856 1.10168,-2.203362 1.22409,-2.692998 0.48964,-2.203362 1.10168,-2.815407 0.61205,-0.979272 2.20336,-0.979272 3.91709,0 10.28236,1.591317 6.24286,1.836135 11.99608,4.773951 5.87563,3.182634 7.95659,5.875632 0,3.305042 -1.59132,6.120449 l -11.26163,24.849027 -11.01681,24.971431 -0.48963,0.12241 q -0.12241,0 -0.36723,0.24482 -8.07899,15.79076 -14.81149,28.39889 -0.24482,0.48963 -1.46891,0.48963 z"
       id="path2334"
       style="fill:#1117bb;fill-opacity:1" />
    <path
       d="m 273.2478,100.90233 q -3.79468,0.24481 -5.87563,-1.224095 -0.85686,-0.734454 -0.85686,-2.325771 v -9.058266 q 0,-2.570588 -0.12241,-3.917087 l -0.12241,-5.018769 q 0,-1.101681 1.10168,-2.203362 1.10168,-1.101681 2.20336,-1.101681 3.67227,0 5.50841,-0.122409 3.18263,-0.244818 5.5084,-0.244818 h 11.26163 q 2.44818,0 5.63081,0.244818 1.59132,0.122409 5.26359,0.122409 2.57059,0 5.01877,0.612045 2.57059,0.734454 2.57059,2.815407 0,3.67227 -0.24482,7.834176 0,2.080952 -0.12241,3.060224 v 3.427452 q 0,1.958544 -0.24482,3.060225 -0.12241,0.979272 -0.73445,1.836135 -1.10168,1.836137 -5.386,1.836137 l -0.85686,0.24482 q -0.36723,0.12241 -1.10168,0.12241 h -24.60421 z"
       id="path2336"
       style="fill:#1117bb;fill-opacity:1" />
    <path
       d="m 384.51743,127.7099 q -8.69104,0 -13.95462,-0.48964 -5.14118,-0.36723 -8.20141,-1.46891 -3.18263,-1.3465 -4.65154,-3.67227 -1.46891,-2.32577 -1.46891,-6.24286 V 112.776 q 0.12241,-1.22409 0.12241,-3.67227 0.12241,-1.22409 0.12241,-3.67227 0.12241,-1.22409 0.12241,-2.57059 0,-4.651543 -0.24482,-13.954627 l -0.12241,-7.344539 q -0.61204,-8.691039 -0.61204,-21.054348 V 56.34545 52.550771 q 0,-4.284314 0.36722,-6.242858 0.24482,-0.612045 0.24482,-1.101681 0.12241,-0.489636 0.12241,-0.734454 0.12241,-2.203362 1.83614,-3.305043 0.97927,-0.367227 2.69299,-0.367227 1.10169,0 2.32578,-0.122409 1.34649,-0.122409 2.8154,-0.122409 1.95855,0 6.12045,-0.244818 1.10168,-0.122409 2.57059,-0.244818 1.59132,-0.122409 3.54986,-0.122409 3.91709,-0.244818 5.50841,-0.244818 10.03753,0 23.50252,1.958544 9.4255,1.101681 14.68908,2.325771 8.93586,2.203362 13.5874,5.753223 5.99804,5.141177 5.99804,13.097762 0,10.282356 -8.44622,15.545943 -0.61204,0.367227 -1.10168,0.612045 -0.48963,0.122409 -0.97927,0.367227 -2.20336,0.612045 -3.79468,1.591317 -0.24482,0.122409 -0.61204,0.489636 -0.36723,0.244818 -0.61205,0.734454 0,0 0,0.122409 0.12241,0 0.12241,0.122409 0,0 0.24482,0.244818 8.44622,3.427452 13.70981,8.44622 3.91708,4.406724 3.91708,9.180675 0,6.73249 -8.2014,13.5874 -8.07899,6.36527 -19.95267,9.67031 -8.81344,2.44818 -17.38207,3.42745 -6.48768,0.73446 -13.95463,0.73446 z M 399.0841,70.544894 q 0.61205,0 1.3465,-0.367227 3.18263,-1.101681 5.99804,-2.692998 1.71373,-0.734454 3.30504,-1.468908 1.71373,-0.856863 2.32578,-1.101681 l 1.10168,-0.489636 0.97927,-0.244818 q 0.48963,0 0.48963,-0.612045 0,-2.080953 -4.52913,-2.815407 -2.693,-0.612045 -6.73249,-0.612045 -3.67227,0 -4.65155,2.815407 -0.61204,1.468908 -0.61204,3.67227 0,2.203362 0,2.692998 v 0.612045 q 0,0.612045 0.97927,0.612045 z m -1.83613,35.376196 q 0,0 0,0 0.12241,0 0.12241,-0.12241 8.56863,-4.1619 19.46303,-9.058261 0.48963,-0.489636 0.61204,-0.489636 l 0.61205,-0.367227 q -5.14118,-1.591317 -10.15995,-2.080953 -6.36527,-0.244818 -10.52717,-0.244818 -1.3465,0 -1.3465,1.713726 v 9.792719 q 0,0.85686 0.97927,0.85686 z"
       id="path2338"
       style="fill:#1117bb;fill-opacity:1" />
    <path
       d="m 495.78718,124.77208 q -12.60812,0 -18.36135,-0.12241 -5.26358,0 -8.07899,-0.12241 l -10.03754,-0.12241 q -1.10168,0 -2.08095,-0.97927 -0.97927,-0.97927 -0.97927,-2.08095 V 94.414648 82.663385 l -0.12241,-10.037538 q 0,-5.018769 0.24482,-12.608127 0,-1.591317 0.36722,-8.201402 v -2.815407 q 0,-3.427452 1.3465,-5.508405 0.61205,-1.101681 1.95855,-1.101681 5.99804,0 13.09776,0.244818 0.97927,0.122409 2.81541,0.122409 4.03949,0 5.99804,0.122409 h 6.61008 q 0.48964,0 2.81541,0 2.44818,0 3.79468,0.612045 2.20336,1.22409 2.20336,5.630814 l -0.12241,0.979272 q 0,0.367227 -0.24482,1.836135 -0.36722,1.836134 -0.36722,2.692997 0,1.346499 0.36722,3.427452 0.24482,1.468908 0.24482,1.958544 l 0.12241,0.734454 v 17.13726 7.956585 7.589357 1.468908 q 0,0.979272 1.10168,1.22409 0.36723,0.122409 1.59132,0.122409 h 8.93585 q 3.30505,-0.122409 10.03754,-0.122409 1.3465,0 2.20336,0.856863 0.85687,0.734454 0.85687,1.591317 v 23.380116 0.24482 q 0,0.97927 -0.97928,1.59132 -1.10168,0.48963 -2.57058,0.61204 -1.59132,0.36723 -5.01877,0.36723 z"
       id="path2340"
       style="fill:#1117bb;fill-opacity:1" />
    <path
       d="m 694.33426,127.58749 q -9.5479,0 -17.13726,-4.40673 -8.56863,-4.1619 -14.07704,-13.70981 -6.12045,-10.771987 -6.12045,-25.461066 0,-10.404765 3.67227,-18.728577 3.67227,-8.323812 10.52718,-14.077034 6.73249,-5.630814 15.79076,-8.56863 9.05826,-2.937816 19.70785,-2.937816 15.66835,0 32.31597,7.956585 l -4.77395,20.809529 q -0.85686,-0.244818 -2.08095,-0.612045 -1.10168,-0.367227 -2.57059,-0.734454 -6.7325,-1.713726 -9.91513,-2.203362 -2.93782,-0.489636 -4.77395,-0.489636 -7.71177,0 -11.75126,4.161906 -4.77396,4.773951 -4.77396,16.035579 0,10.282355 3.06023,14.689079 2.57059,4.161902 7.58936,4.161902 3.18263,0 7.34454,-1.71372 0,-1.958546 -0.24482,-5.875634 l -0.12241,-2.692998 q -0.12241,-2.815407 -0.12241,-8.323811 v -3.305043 q 0,-1.101681 0.36723,-1.468908 0.36723,-0.489636 1.3465,-0.489636 0.36722,0.122409 2.08095,0.122409 h 12.97535 q 5.75323,0 7.58936,-0.122409 3.30504,0 4.28432,0.122409 1.59131,0.367227 2.08095,1.22409 0.61204,0.734454 0.61204,2.44818 0,0.612045 0.12241,1.101681 v 1.101681 1.958544 3.672269 12.363306 0.61205 q -0.12241,0.48963 -0.24481,1.10168 -0.12241,0.61204 -0.12241,1.3465 v 0.61204 q 0,7.71177 -0.24482,10.77199 -0.24482,5.01877 -0.85686,6.36527 -3.18264,0 -4.77396,0.24482 l -2.69299,0.12241 h -0.36723 q -1.10168,0 -1.22409,-0.12241 -0.12241,-0.12241 -0.24482,-0.12241 0,-0.12241 0,-0.12241 h -0.36723 q -0.1224,0.12241 -0.24481,0.24482 0,0.12241 0,0.12241 h -12.2409 -0.61205 -1.22409 -1.46891 q -0.36722,0.12241 -0.97927,0.12241 -0.48963,0 -0.85686,-0.73446 -0.85686,-2.20336 -0.97927,-5.26358 -0.24482,-1.46891 -0.48964,-4.28432 -1.10168,6.24286 -7.71177,9.67031 -5.99804,3.30505 -15.0563,3.30505 z"
       id="path2342"
       style="fill:#1117bb;fill-opacity:1" />
  </g>
  <path
     style="opacity:0.421;fill:#2117d1;fill-opacity:0.52156866;stroke:#000000;stroke-width:0.229008;stroke-opacity:0"
     d="M 98.428801,85.439907 97.78626,84.887447 97.71877,76.32889 c -0.05154,-6.536659 0.0026,-8.773082 0.229008,-9.466624 l 0.296496,-0.908068 1.832066,-0.271364 c 2.38522,-0.353297 5.16793,-0.349739 8.01526,0.01025 2.55853,0.323475 3.25351,0.601057 3.44834,1.377284 0.0732,0.291737 0.1002,4.17903 0.06,8.638428 -0.0763,8.448796 -0.15854,9.164309 -1.10371,9.597081 -0.18893,0.08651 -0.57398,0.276356 -0.85567,0.421887 -0.34172,0.176547 -2.18556,0.264601 -5.54066,0.264601 -4.984817,0 -5.034092,-0.0048 -5.67105,-0.552459 z"
     id="path34454" />
  <path
     style="opacity:0.421;fill:#2117d1;fill-opacity:0.521569;stroke:#000000;stroke-width:0.229008;stroke-opacity:0"
     d="m 70.903231,114.77656 c -0.01395,-0.22785 -0.128422,-0.35059 -0.254376,-0.27274 -0.125954,0.0778 -0.229008,0.0403 -0.229008,-0.0834 0,-0.2652 -2.805343,-2.16447 -4.322845,-2.92664 -1.306204,-0.65604 -4.369378,-3.43018 -5.33122,-4.82817 l -0.713377,-1.03685 0.135523,-2.4327 c 0.131749,-2.36493 0.658118,-5.286738 1.880762,-10.439858 0.453603,-1.911818 0.576505,-2.950079 0.51506,-4.351145 -0.07011,-1.598568 -0.788974,-4.778007 -1.325051,-5.860503 -0.575652,-1.162406 -3.5747,-13.171919 -4.920517,-19.703915 -1.541209,-7.480344 -2.759157,-15.757394 -2.486154,-16.895641 0.423599,-1.766129 1.823027,-3.70702 3.494044,-4.845951 0.640471,-0.436531 1.164692,-0.870984 1.164936,-0.965449 2.43e-4,-0.09447 0.09381,-0.171756 0.207924,-0.171756 0.265923,0 3.82509,-2.137606 4.677884,-2.809499 l 0.648725,-0.511112 0.411703,0.506851 c 0.226436,0.278768 0.632951,1.360829 0.903366,2.40458 0.270415,1.043752 0.84619,3.185898 1.2795,4.760325 0.433311,1.574428 1.206455,4.614504 1.718099,6.755725 0.980262,4.102383 1.207124,4.727394 1.578653,4.349231 0.321622,-0.327365 1.489754,-6.138065 2.669801,-13.280528 0.561859,-3.400764 1.069344,-6.312023 1.127743,-6.469466 0.173211,-0.46697 1.320885,-0.328013 2.614323,0.316534 2.350376,1.171243 5.01796,4.08896 6.699495,7.327693 0.909132,1.751041 0.932271,1.851221 0.813034,3.519895 -0.0675,0.944657 -0.949596,6.303435 -1.960214,11.908397 -1.010615,5.604962 -2.664536,14.982824 -3.675378,20.839695 -1.010842,5.85687 -1.948064,10.958015 -2.082718,11.335878 -0.134653,0.377862 -1.212751,5.375954 -2.395773,11.106869 -2.305802,11.16999 -2.804087,13.40455 -2.843944,12.75366 z"
     id="path35908" />
  <path
     style="opacity:0.421;fill:#2117d1;fill-opacity:0.521569;stroke:#000000;stroke-width:0.229008;stroke-opacity:0"
     d="m 132.82443,107.81735 c -4.06299,-0.53888 -5.46638,-2.26907 -5.80257,-7.15374 -0.0916,-1.330635 -0.16316,-15.867808 -0.15907,-32.304831 0.008,-31.988006 -0.0192,-31.22369 1.11811,-31.493712 0.27081,-0.0643 1.36834,-0.214775 2.43895,-0.334393 1.07061,-0.119618 2.76347,-0.321064 3.7619,-0.447658 2.83743,-0.359763 5.91197,0.207949 10.63871,1.964434 3.45121,1.28249 4.98798,2.349773 6.57117,4.563652 2.11812,2.961896 2.98124,7.230024 2.78499,13.771733 -0.1008,3.360026 -0.22472,4.467871 -0.70618,6.312862 -0.70883,2.716344 -1.82623,5.06304 -2.71068,5.692825 -0.3606,0.256763 -0.86881,0.884723 -1.12937,1.395463 l -0.47375,0.928621 0.48049,0.597896 c 3.58308,4.458632 5.05544,7.945458 5.4256,12.848903 0.4579,6.065645 -2.1708,13.446932 -6.42462,18.040125 -2.47171,2.66891 -6.66893,4.99639 -9.97839,5.53332 -1.42715,0.23154 -4.40187,0.27462 -5.83529,0.0845 z m 10.19084,-20.939255 c 3.98864,-4.774558 3.97983,-4.761493 3.53958,-5.247969 -0.75149,-0.830377 -2.88286,-1.559762 -4.70837,-1.611268 -0.95772,-0.02702 -1.85944,0.02388 -2.00382,0.113109 -0.18403,0.113737 -0.26251,1.618768 -0.26251,5.03422 0,4.483853 0.062,5.212647 0.43893,5.157932 0.0735,-0.01067 1.42176,-1.561376 2.99619,-3.446024 z m -0.50098,-27.450614 c 0.81365,-0.944657 1.87755,-2.145788 2.36422,-2.669181 1.03215,-1.11004 1.14643,-1.97467 0.38838,-2.938374 -0.95112,-1.209151 -3.38439,-1.703895 -4.16078,-0.845989 -0.5554,0.61371 -0.83893,2.501444 -0.83893,5.585561 0,3.328904 0.0957,3.365852 2.24711,0.867983 z"
     id="path35910" />
  <path
     style="opacity:0.421;fill:#2117d1;fill-opacity:0.521569;stroke:#000000;stroke-width:0.229008;stroke-opacity:0"
     d="m 161.6794,105.24426 -1.83205,-0.12976 -0.30582,-0.91603 c -0.44658,-1.33763 -0.23098,-62.52976 0.22754,-64.580149 l 0.30727,-1.374046 1.71755,0.0076 c 0.94466,0.0042 3.50299,0.09694 5.68518,0.206126 3.90504,0.195381 3.97368,0.207743 4.35115,0.783673 0.35029,0.534453 0.38916,2.377541 0.44859,21.268994 0.0384,12.198784 0.15348,20.916376 0.28059,21.250697 l 0.21552,0.566865 h 3.54723 c 3.27266,0 3.56558,0.03429 3.7843,0.442961 0.27399,0.51196 0.3332,21.501789 0.0618,21.908259 -0.47862,0.7168 -1.22237,0.77826 -8.91274,0.73656 -4.25923,-0.0231 -8.56848,-0.10039 -9.57611,-0.17176 z"
     id="path35912" />
  <path
     style="opacity:0.421;fill:#2117d1;fill-opacity:0.521569;stroke:#000000;stroke-width:0.229008;stroke-opacity:0"
     d="m 234.27481,107.32129 c -1.17612,-0.53506 -3.28712,-2.81848 -4.42731,-4.78893 -2.18553,-3.776947 -3.77879,-9.679094 -4.774,-17.685032 -0.59395,-4.77807 -0.59674,-20.084487 -0.004,-24.274809 2.10979,-14.925541 6.83604,-23.196117 14.01377,-24.522991 3.31389,-0.612606 7.16517,1.271368 10.8162,5.29107 l 0.9403,1.035254 -0.74745,8.185652 c -0.4111,4.502108 -0.80296,8.241155 -0.8708,8.308994 -0.0678,0.06784 -0.87479,-0.36277 -1.79323,-0.956906 -1.82691,-1.181819 -3.55082,-1.921226 -4.4793,-1.921226 -0.85084,0 -2.18164,0.812343 -2.79339,1.705131 -1.34166,1.958018 -1.99879,4.933492 -2.36414,10.704681 -0.30827,4.869462 -0.003,12.298827 0.62795,15.300112 0.8908,4.235002 2.24645,5.459927 4.35231,3.932613 l 0.89282,-0.64754 v -9.028032 -9.028033 l 4.23664,-0.127754 c 2.33016,-0.07027 4.45443,-0.05241 4.72061,0.03968 0.26618,0.09209 0.56112,0.407212 0.65543,0.700273 0.457,1.420175 0.25432,35.169653 -0.21402,35.638003 -0.0811,0.0811 -1.76519,0.17781 -3.74249,0.21499 -1.97731,0.0372 -3.86842,0.0984 -4.20247,0.13612 -0.7452,0.0841 -0.78535,-0.1108 -1.02999,-4.99826 -0.14377,-2.87237 -0.2041,-3.266293 -0.36824,-2.404581 -0.80346,4.217951 -1.67561,6.326861 -3.28005,7.931301 -0.53944,0.53943 -1.3611,1.13969 -1.82592,1.33391 -1.14181,0.47707 -3.20521,0.44203 -4.33881,-0.0737 z"
     id="path35914" />
  <path
     style="opacity:0.421;fill:#ff0000;fill-opacity:0.41960785;stroke:#000000;stroke-width:0.229008;stroke-opacity:0"
     d="m 206.67939,70.353458 c 0,-1.78058 -1.10183,-4.830776 -2.21379,-6.128453 l -0.67685,-0.78989 2.09109,-10.992367 c 1.15011,-6.045801 2.14419,-11.146946 2.20908,-11.335878 0.18319,-0.533385 3.22529,2.53403 4.68186,4.720831 3.08118,4.625857 5.44547,11.841829 6.31212,19.264978 0.15055,1.289521 0.22275,2.395568 0.16043,2.457884 -0.0987,0.09873 -12.22247,3.556307 -12.46992,3.556307 -0.0517,0 -0.094,-0.339036 -0.094,-0.753412 z"
     id="path35916" />
  <path
     style="opacity:0.421;fill:#ff0000;fill-opacity:0.419608;stroke:#000000;stroke-width:0.229008;stroke-opacity:0"
     d="m 193.56956,59.999348 -5.20908,-6.520141 0.53991,-1.43426 c 2.66729,-7.08572 7.10728,-11.937804 11.90674,-13.011877 1.24111,-0.277747 3.39838,-0.154924 4.01932,0.228835 0.26862,0.166015 0.15051,1.990565 -0.75169,11.612566 -0.58871,6.278583 -1.06793,11.595949 -1.06494,11.816369 0.004,0.293745 -0.17783,0.400763 -0.68092,0.400763 -0.87112,0 -2.351,1.295712 -2.89932,2.538504 -0.21757,0.493136 -0.45304,0.894985 -0.52327,0.892997 -0.0702,-0.0021 -2.47177,-2.937678 -5.33675,-6.523756 z"
     id="path37370" />
  <path
     style="opacity:0.421;fill:#ff0000;fill-opacity:0.419608;stroke:#000000;stroke-width:0.229008;stroke-opacity:0"
     d="m 187.61215,89.72564 c -2.54798,-8.623246 -2.99151,-20.051438 -1.13588,-29.267625 0.22824,-1.133588 0.49407,-2.042732 0.59073,-2.02032 0.0967,0.02241 2.66827,2.233038 5.71468,4.912503 4.81012,4.230732 5.52938,4.948556 5.46635,5.455435 -0.23819,1.915342 -0.0909,7.554768 0.22569,8.643936 l 0.34595,1.190026 -4.90223,6.138218 c -2.69623,3.376019 -5.08391,6.323915 -5.30596,6.55088 -0.38692,0.39548 -0.42852,0.328734 -0.99933,-1.603053 z"
     id="path37372" />
  <path
     style="opacity:0.421;fill:#ff0000;fill-opacity:0.419608;stroke:#000000;stroke-width:0.229008;stroke-opacity:0"
     d="m 200.72519,106.58062 c -3.45919,-0.67556 -7.47054,-4.27896 -9.96901,-8.955175 l -0.73023,-1.366736 4.69697,-8.114332 4.69698,-8.114331 0.39317,0.633832 c 0.80251,1.293727 1.55427,1.780076 2.72501,1.762947 l 1.08831,-0.01592 2.12061,11.224581 c 2.03677,10.780804 2.10391,11.237294 1.69826,11.546294 -0.67288,0.51255 -2.1677,1.11116 -3.47463,1.39145 -1.36174,0.29203 -1.78301,0.29299 -3.24544,0.007 z"
     id="path37374" />
  <path
     style="opacity:0.421;fill:#ff0000;fill-opacity:0.419608;stroke:#000000;stroke-width:0.229008;stroke-opacity:0"
     d="m 210.23546,101.27863 c -0.19241,-0.66126 -1.5707,-5.374353 -3.06285,-10.473538 l -2.713,-9.271244 0.65394,-1.062777 c 0.73656,-1.197071 1.42958,-3.681198 1.67005,-5.986338 l 0.16125,-1.545802 h 6.27948 6.27949 l -0.002,1.774809 c -0.003,2.434263 -0.56591,7.530974 -1.14723,10.394021 -1.33932,6.596263 -3.64166,12.220263 -6.57312,16.056359 -0.55344,0.72424 -1.04889,1.3168 -1.10098,1.3168 -0.0521,0 -0.25216,-0.54103 -0.44458,-1.20229 z"
     id="path37376" />
</svg>
