<?xml version="1.0" encoding="UTF-8" standalone="no"?>
<!-- Created with Inkscape (http://www.inkscape.org/) -->

<svg
   width="300"
   height="150"
   viewBox="0 0 300 150"
   version="1.1"
   id="svg11177"
   xmlnssvg="http://www.w3.org/2000/svg"
   xmlnsSvg="http://www.w3.org/2000/svg"
   xmlns="http://www.w3.org/2000/svg"
   xmlnsvg="http://www.w3.org/2000/svg">
  <defs
     id="defs11174" />
  <g
     id="layer1"
     transform="matrix(0.95881348,0,0,0.95928376,6.3238786,3.0537177)">
    <path
       id="path2046"
       d="m 212.70861,75.070543 c -0.30683,2.505623 0.0441,5.267794 0.96451,7.91131 0.84657,2.411432 2.16055,4.612651 3.71373,5.135253 0.99785,-3.278501 0.82108,-7.328839 -0.35167,-10.045332 -1.09765,-2.536982 -2.75173,-3.326566 -4.32657,-3.001231 z m -1.24029,10.799365 c -0.82153,2.089702 -1.0826,4.837908 -0.83337,7.890881 0.0805,0.961846 0.21464,1.947903 0.40628,2.890991 0,0 0,0 0,0 0.36873,1.813914 0.94836,3.48401 1.79748,4.55781 0.16915,-0.22911 0.33171,-0.47916 0.48636,-0.74859 1.36114,-2.387174 1.89025,-5.812863 1.46412,-8.765263 -0.4503,-3.106345 -1.80485,-5.009398 -3.32087,-5.825829 z m -3.47295,8.791656 c -1.20846,1.202391 -2.09244,3.425439 -2.62556,6.371106 -0.4793,2.68202 -0.63609,5.92979 0.10504,8.43285 2.10063,-0.65704 3.75297,-3.55786 4.13466,-6.96237 0.35496,-3.18332 -0.43757,-5.927571 -1.61414,-7.841586 z m -5.18904,5.032959 c -0.98954,0.06084 -1.91248,0.695147 -2.83374,1.837987 -0.35417,0.44996 -0.71063,0.97423 -1.05115,1.55429 -1.12646,1.93333 -2.15093,4.60142 -2.18152,7.44562 1.02248,0.64596 2.17137,0.70867 3.23267,0.15471 0.94937,-0.51884 1.7392,-1.48235 2.29388,-2.71778 1.12999,-2.5222 1.10242,-5.61976 0.53986,-8.274827 z m -5.73992,-0.03463 c -1.20284,-1.140711 -2.70934,-1.272658 -4.36904,-0.459514 -1.50965,0.750538 -3.09588,2.311041 -3.84702,4.817621 1.45925,2.78834 3.71438,3.68229 5.49841,2.38306 1.66825,-1.21858 2.48545,-3.92035 2.71765,-6.741167 z M 191.893,94.570521 c -0.23133,-0.58214 -0.49971,-1.099067 -0.80704,-1.558093 -0.7815,-1.15787 -1.82537,-1.988962 -3.01284,-2.413546 -1.54514,-0.541642 -3.33077,-0.358066 -4.61259,1.311357 0.63141,3.565916 2.39876,6.164049 4.30739,6.459821 0.0328,0.0042 0.0655,0.0093 0.0981,0.01293 0,0 0,0 0,0 1.74808,0.198475 3.13001,-1.529416 4.02703,-3.812516 z m -3.44671,-8.830546 c -0.26295,-2.524345 -1.18704,-4.814082 -2.60914,-6.590528 -1.30339,-1.615184 -2.99182,-2.707124 -4.53384,-2.08451 -0.20295,3.726084 0.8432,7.322912 2.51266,8.986442 1.56126,1.551842 3.25371,1.104969 4.63032,-0.311404 z m -1.20972,-10.810553 c 0.30683,-2.505624 -0.0441,-5.267801 -0.9645,-7.911317 -0.84657,-2.411432 -2.16053,-4.612659 -3.71374,-5.135273 -0.99784,3.278517 -0.82107,7.328846 0.35168,10.045344 1.09764,2.536985 2.75172,3.326567 4.32656,3.001246 z m 1.24029,-10.799385 c 0.82156,-2.089689 1.08261,-4.837886 0.83337,-7.890865 -0.0805,-0.961822 -0.21461,-1.947834 -0.40624,-2.890896 0,0 0,0 0,0 -0.36872,-1.813951 -0.94835,-3.484101 -1.7975,-4.557912 -0.16915,0.229117 -0.33172,0.479185 -0.48638,0.748617 -1.36113,2.387181 -1.89023,5.812846 -1.46411,8.765226 0.4503,3.106338 1.80484,5.009402 3.32086,5.82583 z m 3.47296,-8.791634 c 1.20847,-1.202397 2.09245,-3.425438 2.62557,-6.3711 0.4793,-2.682019 0.63609,-5.929794 -0.10503,-8.432855 -2.10063,0.65704 -3.75298,3.557854 -4.13467,6.962367 -0.35496,3.183316 0.43758,5.92757 1.61413,7.841588 z m 5.18905,-5.032942 c 0.98953,-0.06075 1.91247,-0.695137 2.83372,-1.837949 0.35417,-0.449975 0.71065,-0.974241 1.05117,-1.55433 1.12648,-1.933309 2.15095,-4.601394 2.18154,-7.445602 -1.0225,-0.645967 -2.17138,-0.708674 -3.23271,-0.154701 -0.94936,0.518836 -1.73917,1.48235 -2.29385,2.71776 -1.13,2.522187 -1.10243,5.619749 -0.53987,8.274822 z m 5.7399,0.03465 c 1.20287,1.140726 2.70935,1.272671 4.36907,0.459542 1.50964,-0.750543 3.09587,-2.31104 3.84701,-4.81762 -1.45925,-2.788339 -3.71437,-3.682296 -5.49841,-2.383086 -1.66824,1.218582 -2.48545,3.92035 -2.71767,6.741164 z m 5.17343,5.089395 c 0.23132,0.582126 0.49968,1.099057 0.80702,1.558074 0.7815,1.157879 1.82536,1.988979 3.01285,2.413564 1.54515,0.541658 3.33077,0.35808 4.6126,-1.311334 -0.63142,-3.565926 -2.39876,-6.164049 -4.30739,-6.459841 -0.0328,-0.0047 -0.0655,-0.0093 -0.0981,-0.01294 0,0 0,0 0,0 -1.74806,-0.198448 -3.12997,1.52943 -4.02699,3.812515 z m 3.4467,8.830588 c 0.26295,2.524342 1.18703,4.814086 2.60915,6.590524 1.30338,1.615198 2.9918,2.707145 4.53382,2.084526 0.20295,-3.726084 -0.84318,-7.322906 -2.51265,-8.986451 -1.56126,-1.551847 -3.25371,-1.104972 -4.63032,0.311401 z"
       style="opacity:0.421;fill:#ff0000;stroke-width:0.524934" />
    <path
       id="path2069"
       style="opacity:0.421;fill:#ff0000;stroke-width:0.572415"
       d="m 209.19468,75.000001 a 9.3519768,17.239109 0 0 1 -9.35198,17.239111 9.3519768,17.239109 0 0 1 -9.35198,-17.239111 9.3519768,17.239109 0 0 1 9.35198,-17.239113 9.3519768,17.239109 0 0 1 9.35198,17.239113 z" />
    <g
       aria-label="Y - BL    G"
       transform="matrix(0.33382701,0,0,0.84421793,6.1143083,-99.460577)"
       id="text2308"
       style="font-size:124.101px;font-family:'Sigmar One';-inkscape-font-specification:'Sigmar One, Normal';text-align:center;text-orientation:upright;text-anchor:middle;opacity:0.421;fill:#1118ba;fill-opacity:1;stroke-width:1.29273">
      <path
         d="m 171.50232,255.30108 q 0,0 -0.24821,0 -0.1241,0 -0.2482,0.1241 l -0.3723,0.1241 q -0.3723,0 -0.3723,-0.2482 -0.49641,-0.2482 -0.62051,-0.74461 -4.34353,-0.7446 -5.58454,-1.24101 l -4.34354,-1.24101 h -0.6205 q -0.62051,0 -0.99281,-0.2482 -1.11691,0 -1.86152,-0.2482 -0.99281,-0.1241 -3.22662,-0.86871 -2.23382,-0.74461 -3.22663,-1.11691 -1.98562,-0.6205 -5.70865,-2.10972 -1.73741,-0.7446 -2.60612,-0.9928 l -2.85432,-1.73742 q -0.99281,-0.7446 -0.99281,-1.48921 0,-2.35792 1.11691,-4.96404 0.3723,-0.86871 0.99281,-2.10972 0.74461,-1.24101 1.36511,-2.85432 0.2482,-0.74461 1.36511,-2.23382 2.97843,-4.96404 3.22663,-5.46044 0.4964,-1.36511 0.4964,-2.48202 0,-1.86152 -1.98561,-3.84713 -1.86152,-1.86152 -1.86152,-3.59893 -0.6205,0 -0.6205,0.1241 h -0.24821 -0.1241 q -0.2482,-0.2482 -0.2482,-0.4964 -3.97123,-4.96404 -8.06656,-12.0378 -5.21225,-8.19067 -8.43887,-14.89212 -0.99281,-1.48921 -2.35792,-5.33634 -1.61331,-3.35073 -2.73022,-6.82556 -1.36511,-3.84713 -1.36511,-4.96404 0,-1.24101 2.73022,-3.22662 1.11691,-0.74461 2.60612,-1.48922 1.48921,-0.7446 2.23382,-1.11691 0.6205,-0.1241 5.21224,-1.36511 l 1.73741,-0.6205 q 0.49641,-0.3723 1.11691,-0.3723 0.74461,0 2.35792,-0.49641 3.59893,-0.7446 4.21943,-0.99281 l 4.46764,-0.9928 q 3.72303,-1.24101 4.34354,-1.36512 l 0.2482,-0.1241 h 0.3723 0.2482 q 2.60612,0 3.47483,1.24101 0.74461,0.74461 2.48202,3.47483 0.2482,0.74461 0.86871,1.73742 0.7446,0.9928 0.99281,1.24101 l 0.9928,1.36511 0.86871,0.9928 q 0.4964,0.62051 0.99281,1.48922 0.4964,0.8687 1.11691,1.86151 3.22662,5.70865 4.96404,8.06657 1.11691,1.61331 1.86151,1.61331 0.37231,0 1.24101,-1.36511 1.11691,-1.73742 4.09534,-7.94247 1.61331,-3.97123 3.84713,-9.05937 1.11691,-2.23382 1.24101,-2.73022 0.4964,-2.23382 1.11691,-2.85432 0.6205,-0.99281 2.23381,-0.99281 3.97124,0 10.42449,1.61331 6.32915,1.86152 12.16189,4.83994 5.95685,3.22663 8.06657,5.95685 0,3.35073 -1.61331,6.20505 l -11.4173,25.1925 -11.16908,25.3166 -0.49641,0.12411 q -0.1241,0 -0.3723,0.2482 -8.19067,16.00903 -15.01622,28.79143 -0.2482,0.4964 -1.48921,0.4964 z"
         id="path2347"
         style="fill:#1118ba;fill-opacity:1" />
      <path
         d="m 262.34421,220.05639 q -3.84713,0.24821 -5.95685,-1.24101 -0.86871,-0.7446 -0.86871,-2.35792 v -9.18347 q 0,-2.60612 -0.1241,-3.97123 l -0.1241,-5.08814 q 0,-1.11691 1.11691,-2.23382 1.11691,-1.11691 2.23382,-1.11691 3.72303,0 5.58454,-0.1241 3.22663,-0.2482 5.58455,-0.2482 h 11.41729 q 2.48202,0 5.70865,0.2482 1.61331,0.1241 5.33634,0.1241 2.60612,0 5.08814,0.62051 2.60612,0.7446 2.60612,2.85432 0,3.72303 -0.2482,7.94246 0,2.10972 -0.1241,3.10253 v 3.47483 q 0,1.98561 -0.2482,3.10252 -0.1241,0.99281 -0.74461,1.86152 -1.11691,1.86151 -5.46044,1.86151 l -0.86871,0.2482 q -0.3723,0.1241 -1.11691,0.1241 h -24.9443 z"
         id="path2349"
         style="fill:#1118ba;fill-opacity:1" />
      <path
         d="m 375.15186,247.23451 q -8.81117,0 -14.14752,-0.4964 -5.21224,-0.3723 -8.31476,-1.48921 -3.22663,-1.36511 -4.71584,-3.72303 -1.48921,-2.35792 -1.48921,-6.32915 v -3.10253 q 0.1241,-1.24101 0.1241,-3.72303 0.1241,-1.24101 0.1241,-3.72303 0.1241,-1.24101 0.1241,-2.60612 0,-4.71584 -0.2482,-14.14751 l -0.1241,-7.44606 q -0.62051,-8.81117 -0.62051,-21.34538 v -4.21943 -3.84713 q 0,-4.34354 0.3723,-6.32915 0.24821,-0.62051 0.24821,-1.11691 0.1241,-0.4964 0.1241,-0.74461 0.1241,-2.23381 1.86151,-3.35072 0.99281,-0.37231 2.73022,-0.37231 1.11691,0 2.35792,-0.1241 1.36511,-0.1241 2.85433,-0.1241 1.98561,0 6.20505,-0.2482 1.11691,-0.1241 2.60612,-0.2482 1.61331,-0.1241 3.59893,-0.1241 3.97123,-0.24821 5.58454,-0.24821 10.17628,0 23.82739,1.98562 9.55578,1.11691 14.89212,2.35792 9.05938,2.23382 13.77521,5.83275 6.08095,5.21224 6.08095,13.2788 0,10.42449 -8.56297,15.76083 -0.6205,0.3723 -1.11691,0.62051 -0.4964,0.1241 -0.9928,0.3723 -2.23382,0.6205 -3.84713,1.61331 -0.24821,0.1241 -0.62051,0.4964 -0.3723,0.24821 -0.6205,0.74461 0,0 0,0.1241 0.1241,0 0.1241,0.1241 0,0 0.2482,0.2482 8.56297,3.47483 13.89931,8.56297 3.97123,4.46764 3.97123,9.30758 0,6.82555 -8.31476,13.77521 -8.19067,6.45325 -20.22847,9.80398 -8.93527,2.48202 -17.62234,3.47483 -6.57735,0.7446 -14.14751,0.7446 z m 14.76802,-57.95516 q 0.6205,0 1.36511,-0.37231 3.22662,-1.11691 6.08095,-2.73022 1.73741,-0.7446 3.35072,-1.48921 1.73742,-0.86871 2.35792,-1.11691 l 1.11691,-0.4964 0.99281,-0.24821 q 0.4964,0 0.4964,-0.6205 0,-2.10972 -4.59173,-2.85432 -2.73023,-0.62051 -6.82556,-0.62051 -3.72303,0 -4.71584,2.85432 -0.6205,1.48922 -0.6205,3.72303 0,2.23382 0,2.73023 v 0.6205 q 0,0.62051 0.99281,0.62051 z m -1.86152,35.86518 q 0,0 0,0 0.1241,0 0.1241,-0.1241 8.68707,-4.21943 19.73206,-9.18347 0.4964,-0.4964 0.62051,-0.4964 l 0.6205,-0.37231 q -5.21224,-1.61331 -10.30038,-2.10971 -6.45325,-0.24821 -10.67269,-0.24821 -1.36511,0 -1.36511,1.73742 v 9.92808 q 0,0.8687 0.99281,0.8687 z"
         id="path2351"
         style="fill:#1118ba;fill-opacity:1" />
      <path
         d="m 487.95963,244.25609 q -12.7824,0 -18.61515,-0.1241 -5.33634,0 -8.19066,-0.1241 l -10.17628,-0.1241 q -1.11691,0 -2.10972,-0.99281 -0.99281,-0.99281 -0.99281,-2.10972 v -27.30222 -11.9137 l -0.1241,-10.17628 q 0,-5.08814 0.2482,-12.7824 0,-1.61331 0.3723,-8.31477 v -2.85432 q 0,-3.47483 1.36512,-5.58454 0.6205,-1.11691 1.98561,-1.11691 6.08095,0 13.27881,0.2482 0.99281,0.1241 2.85432,0.1241 4.09533,0 6.08095,0.1241 h 6.70145 q 0.49641,0 2.85433,0 2.48202,0 3.84713,0.62051 2.23382,1.24101 2.23382,5.70864 l -0.1241,0.99281 q 0,0.3723 -0.24821,1.86151 -0.3723,1.86152 -0.3723,2.73023 0,1.36511 0.3723,3.47482 0.24821,1.48922 0.24821,1.98562 l 0.1241,0.74461 v 17.37414 8.06656 7.69426 1.48921 q 0,0.99281 1.1169,1.24101 0.37231,0.12411 1.61332,0.12411 h 9.05937 q 3.35073,-0.12411 10.17628,-0.12411 1.36511,0 2.23382,0.86871 0.86871,0.74461 0.86871,1.61331 v 23.7033 0.2482 q 0,0.99281 -0.99281,1.61331 -1.11691,0.4964 -2.60612,0.62051 -1.61331,0.3723 -5.08814,0.3723 z"
         id="path2353"
         style="fill:#1118ba;fill-opacity:1" />
      <path
         d="m 689.25117,247.11041 q -9.67988,0 -17.37414,-4.46763 -8.68707,-4.21944 -14.27162,-13.89932 -6.20505,-10.92088 -6.20505,-25.813 0,-10.54859 3.72303,-18.98746 3.72303,-8.43886 10.67269,-14.27161 6.82556,-5.70865 16.00903,-8.68707 9.18347,-2.97843 19.98026,-2.97843 15.88493,0 32.76266,8.06657 l -4.83994,21.09717 q -0.8687,-0.2482 -2.10971,-0.62051 -1.11691,-0.3723 -2.60612,-0.7446 -6.82556,-1.73742 -10.05218,-2.23382 -2.97843,-0.4964 -4.83994,-0.4964 -7.81837,0 -11.9137,4.21943 -4.83994,4.83994 -4.83994,16.25723 0,10.42448 3.10253,14.89212 2.60612,4.21943 7.69426,4.21943 3.22662,0 7.44606,-1.73741 0,-1.98562 -0.2482,-5.95685 l -0.1241,-2.73022 q -0.12411,-2.85432 -0.12411,-8.43887 v -3.35072 q 0,-1.11691 0.37231,-1.48922 0.3723,-0.4964 1.36511,-0.4964 0.3723,0.1241 2.10972,0.1241 h 13.1547 q 5.83275,0 7.69426,-0.1241 3.35073,0 4.34354,0.1241 1.61331,0.3723 2.10972,1.24101 0.6205,0.74461 0.6205,2.48202 0,0.62051 0.1241,1.11691 v 1.11691 1.98561 3.72303 12.53421 0.6205 q -0.1241,0.4964 -0.2482,1.11691 -0.1241,0.6205 -0.1241,1.36511 v 0.62051 q 0,7.81836 -0.2482,10.92088 -0.24821,5.08814 -0.86871,6.45326 -3.22663,0 -4.83994,0.2482 l -2.73022,0.1241 h -0.3723 q -1.11691,0 -1.24101,-0.1241 -0.12411,-0.1241 -0.24821,-0.1241 0,-0.1241 0,-0.1241 h -0.3723 q -0.1241,0.1241 -0.2482,0.2482 0,0.1241 0,0.1241 h -12.4101 -0.62051 -1.24101 -1.48921 q -0.3723,0.1241 -0.99281,0.1241 -0.4964,0 -0.8687,-0.74461 -0.86871,-2.23381 -0.99281,-5.33634 -0.2482,-1.48921 -0.49641,-4.34353 -1.1169,6.32915 -7.81836,9.80397 -6.08095,3.35073 -15.26442,3.35073 z"
         id="path2355"
         style="fill:#1118ba;fill-opacity:1" />
    </g>
  </g>
  <path
     style="opacity:0.421;fill:#4018ff;fill-opacity:0.41960803;stroke:#000000;stroke-width:0.224716;stroke-opacity:0"
     d="m 67.077767,114.65017 c 0,-0.21011 -0.101122,-0.38201 -0.224716,-0.38201 -0.123594,0 -0.224716,-0.14487 -0.224716,-0.32193 0,-0.17707 -0.199569,-0.38528 -0.443488,-0.46269 -0.243918,-0.0774 -0.941697,-0.48347 -1.55062,-0.90233 -0.608923,-0.41887 -1.559443,-0.97419 -2.112267,-1.23405 -1.415163,-0.6652 -5.173136,-4.2499 -5.788972,-5.52205 -0.432063,-0.89252 -0.476139,-1.23568 -0.339041,-2.63965 0.19976,-2.04567 1.020605,-6.398406 1.906765,-10.111116 0.830947,-3.481388 0.89627,-5.61534 0.232232,-7.586505 -0.250273,-0.742925 -0.517198,-1.804252 -0.593167,-2.358506 -0.07597,-0.554255 -0.195963,-0.949897 -0.266653,-0.879208 C 57.40373,82.519519 54.381647,70.7278 52.719166,62.920519 51.549539,57.427757 50.224057,48.820183 50.224057,46.717479 c 0,-2.056798 1.225653,-4.193322 3.232789,-5.635305 0.613524,-0.440773 1.224197,-0.895322 1.357053,-1.01011 0.132855,-0.114787 1.054908,-0.68369 2.049006,-1.264228 0.994098,-0.580539 2.15166,-1.326499 2.57236,-1.65769 0.577356,-0.454516 0.86231,-0.550038 1.162146,-0.38957 0.384097,0.205562 1.143212,2.270069 1.521448,4.137761 0.100118,0.494376 0.540588,2.162893 0.978822,3.707816 0.438234,1.544924 1.170847,4.376347 1.628029,6.292052 0.457182,1.915705 0.958073,3.728467 1.113091,4.02836 0.271778,0.525773 0.290274,0.529521 0.517546,0.104859 0.33945,-0.634268 1.460986,-6.303137 2.50713,-12.672432 1.225229,-7.459635 1.120926,-7.064014 1.885466,-7.151549 1.723549,-0.197335 5.279951,2.648506 7.548939,6.040681 1.688998,2.525079 2.111822,3.772206 1.914168,5.645872 -0.08239,0.780986 -1.044029,6.425526 -2.13698,12.543423 -1.092952,6.117896 -2.746955,15.522267 -3.675566,20.8986 -0.928607,5.376334 -1.835769,10.230203 -2.01591,10.786375 -0.180141,0.556173 -1.360066,6.067336 -2.622054,12.247026 -2.017791,9.88071 -2.683773,12.68004 -2.683773,11.28075 z"
     id="path17673" />
  <path
     style="opacity:0.421;fill:#4018ff;fill-opacity:0.419608;stroke:#000000;stroke-width:0.224716;stroke-opacity:0"
     d="m 94.711039,85.160394 -0.554977,-0.590517 -0.05993,-8.689876 c -0.07324,-10.61911 -0.178941,-10.162653 2.419451,-10.447915 0.926955,-0.101765 3.426783,-0.129634 5.555177,-0.06193 4.08235,0.129856 5.2069,0.373013 5.66254,1.224384 0.34592,0.646353 0.29623,15.76344 -0.0562,17.09117 -0.16625,0.626399 -0.49568,1.163017 -0.89668,1.460655 -0.59572,0.442173 -0.96125,0.474519 -6.07415,0.537517 l -5.440271,0.06703 z"
     id="path27785" />
  <path
     style="opacity:0.421;fill:#4018ff;fill-opacity:0.419608;stroke:#000000;stroke-width:0.224716;stroke-opacity:0"
     d="m 128.42527,107.4976 c -1.83306,-0.29849 -3.14607,-1.0563 -3.87613,-2.23715 -1.28005,-2.07043 -1.25417,-1.38134 -1.3326,-35.486089 -0.0667,-29.001077 -0.0438,-31.410389 0.30635,-32.182589 0.42329,-0.933595 0.43378,-0.93744 3.55409,-1.302912 1.17414,-0.137524 2.8269,-0.334174 3.6728,-0.437 1.66174,-0.201997 3.85663,-6.54e-4 5.97398,0.548006 1.98144,0.513443 5.78992,1.871926 7.08273,2.526404 1.59253,0.806214 4.17258,3.461825 4.92955,5.073926 2.09133,4.453836 2.54348,12.754146 1.02266,18.773606 -0.54211,2.145713 -1.82773,4.803824 -2.62779,5.43315 -1.38938,1.092887 -1.78749,2.499878 -0.92641,3.27413 0.76824,0.690778 2.3305,3.000311 3.18679,4.711109 1.443,2.883018 1.97021,5.354381 1.96263,9.199942 -0.0139,7.070942 -3.28273,14.401174 -8.16779,18.316227 -1.9261,1.54364 -5.4761,3.26606 -7.61665,3.69552 -1.86736,0.37465 -5.15414,0.41777 -7.14421,0.0937 z m 9.13623,-18.790904 c 0.59466,-0.710665 2.00216,-2.355873 3.12777,-3.656015 2.5235,-2.914771 2.68557,-3.189648 2.16069,-3.664657 -0.85048,-0.769678 -2.85649,-1.460482 -4.68621,-1.613784 -1.69766,-0.142236 -1.85262,-0.119677 -2.07863,0.302628 -0.26665,0.49824 -0.35374,9.514803 -0.0944,9.774134 0.29014,0.290142 0.49965,0.137782 1.57078,-1.142306 z m 0.5566,-28.560201 c 0.41606,-0.475165 1.4046,-1.638071 2.19676,-2.584236 0.79216,-0.946164 1.5253,-1.720299 1.62919,-1.720299 0.3068,0 0.21579,-1.318632 -0.13827,-2.003302 -0.41384,-0.800291 -1.74376,-1.446826 -3.01436,-1.465424 -1.27319,-0.01863 -1.77267,0.607984 -2.05794,2.581749 -0.24244,1.67748 -0.28901,5.685242 -0.0686,5.905637 0.31782,0.317816 0.72475,0.11785 1.45324,-0.714125 z"
     id="path27787" />
  <path
     style="opacity:0.421;fill:#4018ff;fill-opacity:0.419608;stroke:#000000;stroke-width:0.224716;stroke-opacity:0"
     d="m 158.27736,105.11656 -1.94524,-0.0787 -0.3581,-0.89497 c -0.3207,-0.8015 -0.35631,-3.57574 -0.34099,-26.564241 0.0195,-29.198833 0.16995,-37.897971 0.67343,-38.927523 0.30939,-0.632658 0.40547,-0.672599 1.56112,-0.648975 4.05091,0.08281 9.60184,0.401216 9.92936,0.569555 0.21089,0.108386 0.4931,0.575085 0.62716,1.037108 0.16317,0.562389 0.28307,7.636066 0.36275,21.401568 0.0655,11.308839 0.15928,20.687929 0.20848,20.842421 0.0667,0.209339 1.0086,0.280896 3.69753,0.280896 h 3.60807 l 0.21916,0.576419 c 0.13106,0.344706 0.21915,4.802188 0.21915,11.08862 0,10.399512 -0.005,10.516792 -0.47274,10.940282 -0.44507,0.40303 -0.92841,0.4289 -8.25832,0.44211 -4.28206,0.008 -8.66093,-0.0214 -9.73082,-0.0646 z"
     id="path27789" />
  <path
     style="opacity:0.421;fill:#2117d1;fill-opacity:0.521569;stroke:#000000;stroke-width:0.224716;stroke-opacity:0"
     d="m 231.50559,107.42838 c -1.29707,-0.34468 -2.38788,-1.18652 -3.80741,-2.93839 -4.1526,-5.124803 -6.48015,-15.226828 -6.83368,-29.659516 -0.51696,-21.104262 4.4895,-35.790408 13.17736,-38.654949 3.67423,-1.21146 7.45634,0.140623 11.3273,4.049447 1.50475,1.519469 1.70588,1.820176 1.70322,2.546443 -0.002,0.452934 -0.30367,4.059428 -0.67113,8.014432 -0.36747,3.955004 -0.66948,7.416401 -0.67114,7.691995 -0.003,0.46968 -0.1014,0.437435 -1.57303,-0.514564 -3.20921,-2.076027 -4.6721,-2.486002 -6.23102,-1.746246 -1.58001,0.749763 -2.60673,2.897159 -3.36627,7.040561 -0.31809,1.735251 -0.39267,3.48066 -0.39845,9.32572 -0.007,7.536343 0.18139,9.867593 1.01912,12.579834 0.86791,2.809958 2.32409,3.579173 4.06268,2.146079 l 0.80936,-0.667144 -0.11646,-8.514011 c -0.064,-4.682704 -0.0554,-8.756028 0.0193,-9.051829 l 0.13571,-0.53782 h 4.49203 c 3.18014,0 4.57039,0.07832 4.76034,0.268161 0.42997,0.429731 0.62448,3.55887 0.63288,10.18114 0.01,7.662251 -0.36768,25.855947 -0.5399,26.028167 -0.0699,0.0699 -2.03238,0.16797 -4.36113,0.21798 l -4.23407,0.0909 -0.13077,-0.97767 c -0.0719,-0.53773 -0.20347,-2.3934 -0.29233,-4.12371 -0.11405,-2.220919 -0.20959,-2.91475 -0.32492,-2.359522 -0.98309,4.733172 -1.56254,6.179962 -3.12721,7.808282 -1.62338,1.68939 -3.47308,2.28432 -5.46034,1.75622 z"
     id="path28318" />
  <path
     style="opacity:0.421;fill:#f2f2f2;fill-opacity:0.419608;stroke:#000000;stroke-width:0.317797;stroke-opacity:0"
     d="m 189.6926,54.319264 c -0.43232,-1.120897 -0.60362,-2.376696 -0.60362,-4.425196 0,-2.492126 0.11499,-3.09433 0.8936,-4.679892 0.49147,-1.000848 1.27186,-2.117273 1.7342,-2.480945 l 0.8406,-0.661223 0.28292,0.733064 c 0.15561,0.403185 0.21043,2.234653 0.12184,4.069928 -0.17103,3.542851 -1.03925,7.000448 -2.08086,8.286781 l -0.58505,0.72251 z"
     id="path28664" />
  <path
     style="opacity:0.421;fill:#ff0000;fill-opacity:0.419608;stroke:#000000;stroke-width:0.112358;stroke-opacity:0"
     d="m 189.95531,54.905663 c -0.65034,-1.686391 -0.70987,-2.04086 -0.76747,-4.569248 -0.0424,-1.861268 -0.0171,-2.532327 0.11989,-3.177869 0.20639,-0.972756 0.9956,-2.626399 1.69878,-3.559476 0.45707,-0.606498 1.32034,-1.408615 1.516,-1.408615 0.18997,0 0.3603,0.961086 0.41874,2.362658 0.17819,4.273974 -0.85975,9.170303 -2.30776,10.886491 l -0.32412,0.384149 z"
     id="path28977" />
  <path
     style="opacity:0.421;fill:#ff0000;fill-opacity:0.419608;stroke:#000000;stroke-width:0.112358;stroke-opacity:0"
     d="m 195.21435,50.292929 c -0.18636,-1.188453 -0.18776,-3.652733 -0.003,-4.563195 0.50398,-2.478077 1.58877,-4.263253 3.01505,-4.961703 0.49993,-0.244816 0.70373,-0.281489 1.34829,-0.242624 0.41764,0.02518 0.91103,0.119794 1.09642,0.210247 0.29474,0.143806 0.34139,0.231726 0.37144,0.700089 0.0767,1.19592 -0.66651,3.938908 -1.53565,5.667536 -1.15775,2.302665 -2.53889,3.79601 -3.76695,4.072981 l -0.37425,0.08441 z"
     id="path28979" />
  <path
     style="opacity:0.421;fill:#ff0000;fill-opacity:0.419608;stroke:#000000;stroke-width:0.112358;stroke-opacity:0"
     d="m 186.0318,63.689665 c -2.09584,-2.134275 -2.80761,-6.179831 -1.80439,-10.25587 0.2658,-1.079946 0.82092,-2.460068 1.23405,-3.068037 l 0.2808,-0.413236 0.37093,0.612029 c 1.67773,2.768245 2.25961,9.403793 1.15186,13.135362 -0.10865,0.365985 -0.26063,0.686457 -0.33775,0.712163 -0.0771,0.0257 -0.48009,-0.299381 -0.8955,-0.722411 z"
     id="path28981" />
  <path
     style="opacity:0.421;fill:#ff0000;fill-opacity:0.419608;stroke:#000000;stroke-width:0.112358;stroke-opacity:0"
     d="m 184.74168,74.871679 c -1.80227,-0.267382 -3.19515,-2.354714 -3.73811,-5.60181 -0.14491,-0.866634 -0.17658,-1.561185 -0.13471,-2.954648 0.0514,-1.711153 0.30559,-3.473647 0.53616,-3.717934 0.0523,-0.05546 0.26765,0.0094 0.49264,0.148484 1.46261,0.903942 3.00007,3.924461 3.66337,7.197127 0.2611,1.2882 0.41261,3.587752 0.29019,4.404117 -0.0886,0.590954 -0.22572,0.655786 -1.10954,0.524664 z"
     id="path28983" />
  <path
     style="opacity:0.421;fill:#ff0000;fill-opacity:0.419608;stroke:#000000;stroke-width:0.112358;stroke-opacity:0"
     d="m 183.56312,86.237006 c -1.88423,-0.855241 -3.39696,-4.626525 -3.39696,-8.468773 0,-0.82919 0.033,-0.859135 0.94629,-0.859135 1.47651,0 3.35525,1.668521 4.55451,4.044891 0.54327,1.076505 0.9557,2.312747 1.14255,3.42479 l 0.14732,0.876718 -0.47816,0.424329 c -0.85092,0.755122 -1.99693,0.974133 -2.91555,0.55718 z"
     id="path28985" />
  <path
     style="opacity:0.421;fill:#ff0000;fill-opacity:0.419608;stroke:#000000;stroke-width:0.112358;stroke-opacity:0"
     d="m 185.58147,97.067348 c -1.12637,-0.561292 -2.25724,-2.199554 -2.86278,-4.147225 -0.49935,-1.606139 -0.4993,-1.591801 -0.008,-2.099745 1.54392,-1.595761 4.07146,-1.35413 5.98796,0.572446 0.47403,0.476524 0.8864,1.033912 1.15596,1.562458 l 0.41904,0.821666 -0.43664,0.86843 c -1.19484,2.376423 -2.66643,3.213927 -4.25568,2.42197 z"
     id="path28987" />
  <path
     style="opacity:0.421;fill:#ff0000;fill-opacity:0.419608;stroke:#000000;stroke-width:0.112358;stroke-opacity:0"
     d="m 190.47137,105.55355 c -0.93141,-0.22684 -1.94638,-1.03883 -2.63384,-2.10711 l -0.38427,-0.59713 0.17425,-0.51141 c 0.56295,-1.65216 1.98043,-3.292467 3.48535,-4.033249 0.73283,-0.360727 1.03504,-0.445704 1.70551,-0.479561 0.6939,-0.03504 0.90359,0.0013 1.41269,0.24495 1.07563,0.514751 1.04118,0.438619 0.8243,1.821706 -0.33499,2.136264 -0.98802,3.731334 -1.9302,4.714654 -0.76938,0.80297 -1.77383,1.16146 -2.65379,0.94715 z"
     id="path28989" />
  <path
     style="opacity:0.421;fill:#ff0000;fill-opacity:0.419608;stroke:#000000;stroke-width:0.112358;stroke-opacity:0"
     d="m 195.4619,109.2654 -0.49057,-0.22259 0.0777,-0.75807 c 0.25457,-2.48454 1.12408,-4.92128 2.47118,-6.92528 0.97999,-1.457885 1.80449,-2.219899 2.69039,-2.486516 l 0.50423,-0.151751 0.14444,0.638744 c 0.0908,0.40155 0.14248,1.410633 0.13914,2.717373 -0.006,2.37921 -0.16108,3.1694 -0.93559,4.76915 -1.04928,2.16728 -2.95148,3.16737 -4.60089,2.41894 z"
     id="path28991" />
  <path
     style="opacity:0.421;fill:#ff0000;fill-opacity:0.419608;stroke:#000000;stroke-width:0.112358;stroke-opacity:0"
     d="m 203.20283,107.33005 c -0.64788,-2.99245 -0.1359,-8.004247 1.12778,-11.039726 0.34939,-0.839277 1.09631,-2.095495 1.33286,-2.241691 0.17435,-0.107756 0.94031,1.556477 1.23884,2.691665 0.13,0.494375 0.29201,1.420427 0.36002,2.057893 0.37429,3.508529 -1.04405,7.463179 -3.15781,8.804709 -0.27473,0.17436 -0.56127,0.31703 -0.63674,0.31703 -0.0755,0 -0.1947,-0.26545 -0.26495,-0.58988 z"
     id="path28993" />
  <path
     style="opacity:0.421;fill:#ff0000;fill-opacity:0.419608;stroke:#000000;stroke-width:0.112358;stroke-opacity:0"
     d="m 209.94939,99.339105 c -1.27658,-2.23122 -2.00307,-7.31701 -1.54154,-10.791554 0.1758,-1.323519 0.59194,-2.986881 0.74725,-2.986881 0.18966,0 1.04748,0.784942 1.47672,1.351256 1.09547,1.44529 1.55042,3.008755 1.63388,5.614944 0.068,2.124405 -0.0862,3.309743 -0.65006,4.995541 -0.34727,1.038248 -1.04525,2.420092 -1.22241,2.420092 -0.0542,0 -0.25396,-0.271529 -0.44384,-0.603398 z"
     id="path28995" />
  <path
     style="opacity:0.421;fill:#ff0000;fill-opacity:0.419608;stroke:#000000;stroke-width:0.112358;stroke-opacity:0"
     d="m 214.0645,87.125158 c -1.31925,-0.873832 -2.65979,-3.47335 -3.41418,-6.620601 -0.23126,-0.964804 -0.29339,-1.563611 -0.34101,-3.286474 l -0.0582,-2.106714 h 0.67394 c 0.83611,0 1.35487,0.210533 2.01872,0.819273 2.08482,1.911728 2.94034,6.563612 1.98285,10.781698 -0.0947,0.417129 -0.21,0.758417 -0.25625,0.758417 -0.0463,0 -0.31888,-0.155519 -0.60585,-0.345599 z"
     id="path28997" />
  <path
     style="opacity:0.421;fill:#ff0000;fill-opacity:0.419608;stroke:#000000;stroke-width:0.112358;stroke-opacity:0"
     d="m 214.15448,72.954054 c -2.16486,-0.783527 -4.31881,-4.10726 -4.88813,-7.542802 l -0.11484,-0.693004 0.36668,-0.32106 c 2.15335,-1.885444 4.56229,-0.508947 5.75175,3.286616 0.41677,1.329896 0.6419,2.907332 0.60304,4.22536 l -0.0331,1.123581 -0.67415,0.02165 c -0.37078,0.01191 -0.82583,-0.03325 -1.01122,-0.100344 z"
     id="path28999" />
  <path
     style="opacity:0.421;fill:#ff0000;fill-opacity:0.419608;stroke:#000000;stroke-width:0.112358;stroke-opacity:0"
     d="m 210.05341,60.126127 c -1.46363,-0.320082 -3.03374,-1.608159 -3.82347,-3.136667 l -0.38996,-0.754771 0.48972,-0.959071 c 0.87052,-1.70484 1.96152,-2.635863 3.08877,-2.635863 1.64122,0 3.43181,2.176929 4.16652,5.065495 l 0.26911,1.05802 -0.24306,0.264742 c -0.43979,0.479008 -1.169,0.910292 -1.8304,1.082564 -0.75421,0.196446 -0.89429,0.197707 -1.72723,0.01555 z"
     id="path29001" />
  <path
     style="opacity:0.421;fill:#ff0000;fill-opacity:0.419608;stroke:#000000;stroke-width:0.112358;stroke-opacity:0"
     d="m 201.98408,52.026406 c -0.75574,-0.342054 -1.03167,-0.612475 -1.03167,-1.011081 0,-0.584656 0.31956,-2.167516 0.62766,-3.108923 1.30949,-4.00117 4.45397,-4.700045 6.61996,-1.471316 l 0.48967,0.729921 -0.2259,0.574481 c -0.73855,1.878248 -2.06661,3.349922 -3.69122,4.090375 -0.77943,0.355243 -2.21439,0.456385 -2.7885,0.196543 z"
     id="path29003" />
  <path
     style="opacity:0.421;fill:#ff0000;fill-opacity:0.419608;stroke:#000000;stroke-width:0.112358;stroke-opacity:0"
     d="m 189.94376,54.750718 c -0.56282,-1.465806 -0.67693,-2.295846 -0.67385,-4.901709 0.002,-1.27685 0.0547,-2.549071 0.11826,-2.827157 0.17206,-0.753143 1.12111,-2.657493 1.71474,-3.44078 0.50078,-0.660759 1.17807,-1.278259 1.40204,-1.278259 0.20747,0 0.26993,0.529758 0.32615,2.766316 0.0433,1.723806 0.0124,2.60997 -0.13036,3.731345 -0.32,2.514176 -1.02158,4.954095 -1.75162,6.09177 -0.5832,0.908845 -0.60313,0.906039 -1.00536,-0.141526 z"
     id="path29005" />
  <path
     style="opacity:0.421;fill:#ff0000;fill-opacity:0.419608;stroke:#000000;stroke-width:0.112358;stroke-opacity:0"
     d="m 197.24459,91.438078 c -3.7872,-0.633249 -6.87197,-5.403735 -7.94187,-12.281818 -0.28463,-1.829872 -0.28463,-6.484626 0,-8.314497 1.22377,-7.867271 5.17214,-13.004401 9.41306,-12.247113 1.2341,0.22037 2.25812,0.797027 3.36665,1.895867 3.01819,2.991795 4.7126,8.208299 4.7126,14.508494 0,5.076064 -1.10165,9.450062 -3.20144,12.711003 -0.80781,1.254519 -2.30179,2.677404 -3.32354,3.165372 -1.09963,0.525164 -2.1176,0.714492 -3.02546,0.562692 z"
     id="path29013" />
</svg>
