<?xml version="1.0" encoding="UTF-8" standalone="no"?>
<!-- Created with Inkscape (http://www.inkscape.org/) -->

<svg
   width="300"
   height="150"
   viewBox="0 0 300 150"
   version="1.1"
   id="svg11177"
   xmlnssvg="http://www.w3.org/2000/svg"
   xmlnsSvg="http://www.w3.org/2000/svg"
   xmlns="http://www.w3.org/2000/svg"
   xmlnsvg="http://www.w3.org/2000/svg">
  <defs
     id="defs11174" />
  <path
     id="path1756"
     d="m 202.07951,73.812218 c 2.26304,1.966949 4.19086,5.067373 5.73858,8.627411 1.55586,3.578744 2.52967,7.127138 3.29814,9.838339 0.68979,2.42269 1.12681,3.644142 1.43281,3.34917 0.29094,-0.280449 0.47504,-2.092627 0.20793,-5.040221 -1.15186,-5.890417 -2.9579,-10.126606 -4.7569,-12.94535 -1.79783,-2.816928 -3.56227,-4.200176 -4.83157,-4.858834 -1.1629,-0.601387 -1.91366,-0.619392 -2.06961,-0.483553 -0.20194,0.175879 0.16662,0.53036 0.98062,1.513038 z m -1.47677,7.093394 c 1.30856,4.214708 1.808,9.287551 1.68434,14.082993 -0.12544,4.864467 -0.84574,8.775815 -1.42846,11.799465 -0.51695,2.69872 -0.7453,4.19228 -0.39292,4.48191 0.33077,0.27188 1.27109,-0.63115 2.28343,-3.11167 1.55862,-5.85888 1.69353,-11.746326 1.24302,-16.326959 -0.45468,-4.622999 -1.47952,-7.920955 -2.32204,-9.966978 -0.007,-0.01708 -0.0135,-0.03401 -0.0202,-0.05102 -1.27172,-3.191295 -1.60338,-2.97966 -1.55429,-2.73192 0,0 0,0 0,0 0.0747,0.285261 0.26319,0.853758 0.50712,1.824053 z m -1.85089,1.726453 c -0.69631,4.691465 -2.49502,8.321555 -4.44635,10.75531 -1.97762,2.466559 -3.96685,3.587329 -5.40372,4.413025 -1.31132,0.759632 -1.99039,1.303888 -1.92218,2.040691 0.0643,0.694249 0.8837,1.648639 2.38941,1.884009 3.15322,-0.8378 5.5972,-3.783008 7.14412,-7.148788 1.56653,-3.408402 2.15113,-7.011324 2.36523,-9.755878 0.19647,-2.524764 0.12868,-4.03757 0.12854,-4.390429 -1.2e-4,-0.352858 0.0564,0.459158 -0.25505,2.20206 z M 196.69028,79.0479 c -2.2973,1.406674 -4.75526,1.16505 -6.9841,0.178196 -2.23205,-0.988272 -4.08689,-2.638618 -5.44321,-3.759147 -1.24242,-1.020634 -1.94,-1.39977 -2.10501,-0.812451 -0.15737,0.560108 0.20383,2.131568 1.24876,4.10466 2.60652,3.216052 5.23245,4.516743 7.47887,4.583972 2.25004,0.06737 3.99698,-1.082196 5.19563,-2.260192 1.06929,-1.052728 1.68462,-2.090094 1.76481,-2.328947 0.12208,-0.363626 -0.26057,-0.02765 -1.15575,0.293909 z m -0.75453,-8.406469 c -2.26305,-1.966969 -4.19086,-5.067393 -5.73858,-8.627445 -1.55585,-3.578738 -2.52967,-7.12714 -3.29813,-9.838348 -0.68978,-2.422683 -1.1268,-3.644149 -1.43281,-3.349176 -0.29095,0.280463 -0.47504,2.092627 -0.20793,5.040234 1.15185,5.890411 2.95789,10.126598 4.75688,12.94535 1.79784,2.816929 3.56227,4.200185 4.83157,4.858849 1.1629,0.601386 1.91366,0.619407 2.06962,0.483574 0.20193,-0.175886 -0.16662,-0.530374 -0.98062,-1.513038 z m 1.47676,-7.093385 c -1.30855,-4.214716 -1.80798,-9.287581 -1.68432,-14.083001 0.12546,-4.864487 0.84575,-8.775812 1.42847,-11.799469 0.51695,-2.698719 0.7453,-4.192262 0.39292,-4.481908 -0.33077,-0.271895 -1.27109,0.631159 -2.28343,3.111648 -1.55865,5.858946 -1.69354,11.746412 -1.24302,16.327055 0.45468,4.623013 1.47954,7.92099 2.32205,9.966992 0.007,0.01708 0.0135,0.03394 0.0202,0.0508 1.27169,3.191238 1.60338,2.979709 1.5543,2.73197 0,0 0,0 0,0 -0.0747,-0.285275 -0.2632,-0.85377 -0.50713,-1.824104 z m 1.85091,-1.726447 c 0.69629,-4.691466 2.49502,-8.321554 4.44634,-10.755309 1.97763,-2.466552 3.96686,-3.587298 5.40374,-4.412985 1.31131,-0.759631 1.99038,-1.303905 1.92218,-2.040705 -0.0643,-0.69424 -0.8837,-1.648616 -2.38941,-1.883988 -3.15323,0.837772 -5.59719,3.782971 -7.14414,7.148755 -1.56652,3.408379 -2.15112,7.011308 -2.36524,9.755871 -0.19647,2.524742 -0.12867,4.037541 -0.12855,4.390414 1.3e-4,0.352851 -0.0564,-0.459143 0.25508,-2.202053 z m 2.06156,3.58418 c 2.29731,-1.406667 4.75525,-1.165042 6.9841,-0.178174 2.23204,0.988287 4.08688,2.638625 5.4432,3.759154 1.24243,1.020642 1.94001,1.399777 2.10502,0.812465 0.15736,-0.560102 -0.20383,-2.131567 -1.24877,-4.104668 -2.60652,-3.216058 -5.23244,-4.516758 -7.47886,-4.583986 -2.25004,-0.06737 -3.99697,1.08216 -5.19564,2.260178 -1.06928,1.052721 -1.68461,2.090072 -1.76481,2.328932 -0.12207,0.36362 0.26057,0.02765 1.15576,-0.293901 z"
     style="opacity:0.421;fill:#ff0000;stroke-width:0.374244" />
  <g
     aria-label=" "
     transform="matrix(0.66390002,0,0,1.4719739,0,0.75408489)"
     id="text2316"
     style="font-size:58.6214px;font-family:'Sigmar One';-inkscape-font-specification:'Sigmar One, Normal';text-align:center;text-orientation:upright;text-anchor:middle;opacity:0.421;fill:#ff0000;stroke-width:0.61064" />
  <g
     aria-label="Y - BL    G"
     transform="matrix(0.62867661,0,0,1.5544454,0,0.75408489)"
     id="text2320"
     style="font-size:63.1836px;font-family:'Sigmar One';-inkscape-font-specification:'Sigmar One, Normal';text-align:center;text-orientation:upright;text-anchor:middle;opacity:0.421;fill:#1118ba;stroke-width:0.658176">
    <path
       d="m 106.7008,71.91872 q 0,0 -0.12636,0 -0.0632,0 -0.12637,0.06318 l -0.18955,0.06318 q -0.18955,0 -0.18955,-0.126367 -0.25274,-0.126367 -0.31592,-0.379101 -2.21143,-0.379102 -2.84326,-0.631836 l -2.21143,-0.631836 h -0.31592 q -0.31591,0 -0.505464,-0.126368 -0.568653,0 -0.947754,-0.126367 -0.505469,-0.06318 -1.642774,-0.442285 -1.137305,-0.379102 -1.642774,-0.568653 -1.010937,-0.315918 -2.906445,-1.074121 -0.884571,-0.379101 -1.326856,-0.505469 l -1.453223,-0.88457 q -0.505469,-0.379102 -0.505469,-0.758203 0,-1.200489 0.568653,-2.527344 0.189551,-0.442285 0.505469,-1.074121 0.379101,-0.631836 0.695019,-1.453223 0.126368,-0.379102 0.69502,-1.137305 1.516406,-2.527344 1.642774,-2.780079 0.252734,-0.695019 0.252734,-1.263672 0,-0.947754 -1.010938,-1.958691 -0.947754,-0.947754 -0.947754,-1.832325 -0.315918,0 -0.315918,0.06318 h -0.126367 -0.06318 Q 91.220825,51.699957 91.220825,51.57359 89.19895,49.046245 87.113891,45.44478 84.46018,41.274662 82.817406,37.862748 q -0.505468,-0.758203 -1.200488,-2.716895 -0.821387,-1.705957 -1.390039,-3.475098 -0.69502,-1.958692 -0.69502,-2.527344 0,-0.631836 1.390039,-1.642774 0.568653,-0.379101 1.326856,-0.758203 0.758203,-0.379101 1.137305,-0.568652 0.315918,-0.06318 2.653711,-0.69502 l 0.88457,-0.315918 q 0.252735,-0.189551 0.568653,-0.189551 0.379101,0 1.200488,-0.252734 1.832325,-0.379102 2.148243,-0.505469 l 2.274609,-0.505469 q 1.895508,-0.631836 2.211426,-0.695019 l 0.126368,-0.06318 h 0.18955 0.126368 q 1.326855,0 1.76914,0.631836 0.379102,0.379102 1.263672,1.769141 0.126368,0.379102 0.442286,0.88457 0.379101,0.505469 0.505469,0.631836 l 0.505468,0.69502 0.44228,0.505469 q 0.25274,0.315918 0.50547,0.758203 0.25274,0.442285 0.56865,0.947754 1.64278,2.906446 2.52735,4.106934 0.56865,0.821387 0.94775,0.821387 0.18955,0 0.63184,-0.69502 0.56865,-0.88457 2.08506,-4.04375 0.82138,-2.021875 1.95869,-4.612403 0.56865,-1.137305 0.63183,-1.390039 0.25274,-1.137305 0.56866,-1.453223 0.31591,-0.505469 1.1373,-0.505469 2.02188,0 5.30742,0.821387 3.22237,0.947754 6.192,2.46416 3.03281,1.642774 4.10693,3.032813 0,1.705957 -0.82139,3.15918 l -5.81289,12.826271 -5.68652,12.889455 -0.25274,0.06318 q -0.0632,0 -0.18955,0.126367 -4.17011,8.150684 -7.64521,14.658595 -0.12637,0.252735 -0.75821,0.252735 z"
       id="path11667" />
    <path
       d="m 152.95118,53.974577 q -1.9587,0.126368 -3.03282,-0.631836 -0.44228,-0.379101 -0.44228,-1.200488 v -4.675587 q 0,-1.326855 -0.0632,-2.021875 l -0.0632,-2.590527 q 0,-0.568653 0.56865,-1.137305 0.56866,-0.568653 1.13731,-0.568653 1.89551,0 2.84326,-0.06318 1.64277,-0.126368 2.84326,-0.126368 h 5.81289 q 1.26368,0 2.90645,0.126368 0.82139,0.06318 2.71689,0.06318 1.32686,0 2.59053,0.315918 1.32686,0.379102 1.32686,1.453223 0,1.895508 -0.12637,4.043751 0,1.074121 -0.0632,1.57959 v 1.76914 q 0,1.010938 -0.12637,1.579591 -0.0632,0.505468 -0.3791,0.947754 -0.56865,0.947754 -2.78008,0.947754 l -0.44229,0.126367 q -0.18955,0.06318 -0.56865,0.06318 h -12.6999 z"
       id="path11669" />
    <path
       d="m 210.38499,67.811786 q -4.48604,0 -7.20293,-0.252734 -2.65371,-0.189551 -4.2333,-0.758204 -1.64278,-0.695019 -2.40098,-1.895508 -0.7582,-1.200488 -0.7582,-3.222363 v -1.57959 q 0.0632,-0.631836 0.0632,-1.895508 0.0632,-0.631836 0.0632,-1.895508 0.0632,-0.631836 0.0632,-1.326856 0,-2.400977 -0.12637,-7.202931 l -0.0632,-3.791016 q -0.31592,-4.486035 -0.31592,-10.867579 v -2.148243 -1.958691 q 0,-2.211426 0.18955,-3.222364 0.12637,-0.315918 0.12637,-0.568652 0.0632,-0.252735 0.0632,-0.379102 0.0632,-1.137305 0.94775,-1.705957 0.50547,-0.189551 1.39004,-0.189551 0.56866,0 1.20049,-0.06318 0.69502,-0.06318 1.45323,-0.06318 1.01093,0 3.15918,-0.126367 0.56865,-0.06318 1.32685,-0.126368 0.82139,-0.06318 1.83233,-0.06318 2.02187,-0.126367 2.84326,-0.126367 5.18105,0 12.13125,1.010937 4.86514,0.568653 7.58203,1.200489 4.6124,1.137305 7.01338,2.969629 3.096,2.653711 3.096,6.760645 0,5.307423 -4.35967,8.024318 -0.31592,0.189551 -0.56865,0.315918 -0.25274,0.06318 -0.50547,0.189551 -1.13731,0.315918 -1.95869,0.821386 -0.12637,0.06318 -0.31592,0.252735 -0.18955,0.126367 -0.31592,0.379101 0,0 0,0.06318 0.0632,0 0.0632,0.06318 0,0 0.12637,0.126367 4.35967,1.769141 7.07656,4.359668 2.02188,2.27461 2.02188,4.73877 0,3.475098 -4.2333,7.01338 -4.17012,3.285547 -10.29893,4.991505 -4.54922,1.263672 -8.97207,1.76914 -3.34873,0.379102 -7.20293,0.379102 z m 7.51885,-29.506742 q 0.31592,0 0.69502,-0.189551 1.64277,-0.568652 3.09599,-1.390039 0.88457,-0.379101 1.70596,-0.758203 0.88457,-0.442285 1.20049,-0.568652 l 0.56865,-0.252735 0.50547,-0.126367 q 0.25274,0 0.25274,-0.315918 0,-1.074121 -2.3378,-1.453223 -1.39004,-0.315918 -3.4751,-0.315918 -1.8955,0 -2.40097,1.453223 -0.31592,0.758203 -0.31592,1.895508 0,1.137305 0,1.390039 v 0.315918 q 0,0.315918 0.50547,0.315918 z m -0.94776,18.260061 q 0,0 0,0 0.0632,0 0.0632,-0.06318 4.42285,-2.148242 10.04619,-4.675586 0.25273,-0.252734 0.31592,-0.252734 l 0.31592,-0.189551 q -2.65372,-0.821387 -5.24424,-1.074122 -3.28555,-0.126367 -5.43379,-0.126367 -0.69502,0 -0.69502,0.884571 v 5.054688 q 0,0.442285 0.50547,0.442285 z"
       id="path11671" />
    <path
       d="m 267.81886,66.29538 q -6.50791,0 -9.47754,-0.06318 -2.71689,0 -4.17012,-0.06318 l -5.18105,-0.06318 q -0.56865,0 -1.07412,-0.505469 -0.50547,-0.505469 -0.50547,-1.074121 V 50.625846 44.560221 l -0.0632,-5.181056 q 0,-2.590527 0.12637,-6.50791 0,-0.821387 0.18955,-4.233302 V 27.18473 q 0,-1.76914 0.69502,-2.843262 0.31592,-0.568652 1.01094,-0.568652 3.096,0 6.76065,0.126367 0.50546,0.06318 1.45322,0.06318 2.08506,0 3.09599,0.06318 h 3.41192 q 0.25273,0 1.45322,0 1.26367,0 1.95869,0.315918 1.13731,0.631836 1.13731,2.906446 l -0.0632,0.505469 q 0,0.189551 -0.12636,0.947754 -0.18955,0.947754 -0.18955,1.390039 0,0.69502 0.18955,1.769141 0.12636,0.758203 0.12636,1.010938 l 0.0632,0.379101 v 8.845704 4.106934 3.917384 0.758203 q 0,0.505469 0.56865,0.631836 0.18955,0.06318 0.82139,0.06318 h 4.6124 q 1.70596,-0.06318 5.18106,-0.06318 0.69502,0 1.1373,0.442285 0.44229,0.379102 0.44229,0.821387 v 12.068068 0.126367 q 0,0.505469 -0.50547,0.821387 -0.56866,0.252734 -1.32686,0.315918 -0.82139,0.189551 -2.59053,0.189551 z"
       id="path11673" />
    <path
       d="m 370.30252,67.748602 q -4.92832,0 -8.84571,-2.274609 -4.42285,-2.148243 -7.26611,-7.076564 -3.15918,-5.560156 -3.15918,-13.142189 0,-5.370606 1.89551,-9.667091 1.89551,-4.296485 5.43379,-7.266114 3.4751,-2.906445 8.15068,-4.422852 4.67559,-1.516406 10.17256,-1.516406 8.0875,0 16.68047,4.106934 l -2.46416,10.741212 q -0.44228,-0.126367 -1.07412,-0.315918 -0.56865,-0.189551 -1.32685,-0.379102 -3.4751,-0.88457 -5.11788,-1.137304 -1.5164,-0.252735 -2.46416,-0.252735 -3.98056,0 -6.06562,2.148243 -2.46416,2.46416 -2.46416,8.277051 0,5.307423 1.57959,7.582033 1.32685,2.148242 3.91738,2.148242 1.64277,0 3.79102,-0.88457 0,-1.010938 -0.12637,-3.032813 l -0.0632,-1.39004 q -0.0632,-1.453222 -0.0632,-4.296484 v -1.705958 q 0,-0.568652 0.18955,-0.758203 0.18955,-0.252734 0.69502,-0.252734 0.18955,0.06318 1.07412,0.06318 h 6.69747 q 2.96963,0 3.91738,-0.06318 1.70596,0 2.21143,0.06318 0.82138,0.189551 1.07412,0.631836 0.31591,0.379102 0.31591,1.263672 0,0.315918 0.0632,0.568653 v 0.568652 1.010938 1.895508 6.381544 0.315918 q -0.0632,0.252734 -0.12637,0.568652 -0.0632,0.315918 -0.0632,0.69502 v 0.315918 q 0,3.980567 -0.12637,5.560157 -0.12637,2.590527 -0.44228,3.285547 -1.64278,0 -2.46417,0.126367 l -1.39003,0.06318 h -0.18956 q -0.56865,0 -0.63183,-0.06318 -0.0632,-0.06318 -0.12637,-0.06318 0,-0.06318 0,-0.06318 h -0.18955 q -0.0632,0.06318 -0.12637,0.126367 0,0.06318 0,0.06318 h -6.31836 -0.31591 -0.63184 -0.7582 q -0.18955,0.06318 -0.50547,0.06318 -0.25274,0 -0.44229,-0.379101 -0.44228,-1.137305 -0.50547,-2.716895 -0.12636,-0.758203 -0.25273,-2.211426 -0.56865,3.222363 -3.98057,4.991504 -3.09599,1.705957 -7.77158,1.705957 z"
       id="path11675" />
  </g>
  <path
     style="opacity:0.421;fill:#ff0000;fill-opacity:0.419608;stroke:#000000;stroke-width:0.229008;stroke-opacity:0"
     d="m 194.64631,71.355981 c -1.48238,-0.850277 -3.70842,-3.232143 -4.90836,-5.251933 -2.68217,-4.514759 -4.92786,-12.512583 -4.46287,-15.894124 0.0823,-0.598283 0.23996,-1.087787 0.35043,-1.087787 0.11047,0 0.51989,1.056298 0.90983,2.347329 3.2541,10.773923 4.98125,14.584872 8.2115,18.118619 0.70603,0.772366 1.48001,1.636167 1.71995,1.919559 0.43389,0.512458 0.43327,0.515245 -0.1145,0.513109 -0.30292,-0.0011 -1.07061,-0.30033 -1.70598,-0.664772 z"
     id="path37422" />
  <path
     style="opacity:0.421;fill:#ff0000;fill-opacity:0.419608;stroke:#000000;stroke-width:0.229008;stroke-opacity:0"
     d="m 196.52897,62.672961 c -2.68707,-6.713618 -3.34082,-15.660052 -1.73233,-23.706958 0.48346,-2.418657 0.99409,-3.817563 1.81359,-4.968443 1.08114,-1.51832 1.17628,-0.387693 0.3494,4.152188 -1.07921,5.925259 -1.15829,6.804776 -1.15132,12.80445 0.007,6.123023 0.2095,7.998371 1.28115,11.871605 0.25577,0.924421 0.41818,1.727629 0.3609,1.784904 -0.0573,0.05727 -0.4719,-0.814711 -0.92139,-1.937746 z"
     id="path37424" />
  <path
     style="opacity:0.421;fill:#ff0000;fill-opacity:0.419608;stroke:#000000;stroke-width:0.229008;stroke-opacity:0"
     d="m 199.25945,59.656489 c 0.33026,-4.211302 1.60356,-8.625262 3.32309,-11.519665 1.67964,-2.827259 4.54965,-5.197893 6.29283,-5.197893 0.37841,0 0.89327,0.295356 1.40246,0.804551 0.74727,0.747263 0.78115,0.841024 0.47589,1.316794 -0.18077,0.281734 -1.28436,1.143826 -2.45243,1.915761 -4.65897,3.078952 -7.12181,6.596705 -8.63151,12.328669 l -0.54503,2.06934 z"
     id="path37426" />
  <path
     style="opacity:0.421;fill:#ff0000;fill-opacity:0.419608;stroke:#000000;stroke-width:0.229008;stroke-opacity:0"
     d="m 213.39937,68.529929 c -3.9828,-3.227662 -5.85343,-4.132003 -8.55204,-4.134417 -1.59864,-0.0014 -2.40249,0.220165 -4.17939,1.152122 -0.50369,0.264177 -0.0334,-0.509432 0.99121,-1.630527 0.74954,-0.820109 1.68274,-1.528353 2.62503,-1.992243 1.28255,-0.631395 1.64159,-0.708337 2.92426,-0.626663 3.03448,0.193221 6.86358,3.02556 7.92376,5.861106 0.57397,1.535111 0.70181,2.599289 0.32824,2.732178 -0.14562,0.0518 -1.0731,-0.560902 -2.06107,-1.361556 z"
     id="path37428" />
  <path
     style="opacity:0.421;fill:#ff0000;fill-opacity:0.419608;stroke:#000000;stroke-width:0.229008;stroke-opacity:0"
     d="m 211.49226,93.034351 c -3.29826,-11.013173 -5.1094,-14.887286 -8.80573,-18.835878 -0.82535,-0.881679 -1.50124,-1.687288 -1.50198,-1.790241 -0.002,-0.234793 0.73779,-0.02191 2.02366,0.582584 4.05587,1.906675 8.45816,10.44682 9.44593,18.324471 0.2394,1.909274 0.10084,4.066392 -0.26122,4.066392 -0.10872,0 -0.51402,-1.056297 -0.90066,-2.347328 z"
     id="path37430" />
  <path
     style="opacity:0.421;fill:#ff0000;fill-opacity:0.419608;stroke:#000000;stroke-width:0.229008;stroke-opacity:0"
     d="m 200.49618,110.39956 c 0,-0.43101 0.37274,-2.93005 0.8283,-5.55343 0.73114,-4.21028 0.84138,-5.360789 0.93981,-9.807962 0.12469,-5.633785 -0.18097,-8.897186 -1.20111,-12.823459 -0.31986,-1.231073 -0.53859,-2.281279 -0.48608,-2.333792 0.14145,-0.141453 1.40653,3.007145 1.95406,4.863384 0.26193,0.887991 0.69707,2.846006 0.96698,4.351145 0.95585,5.330262 0.57947,14.167854 -0.79701,18.714184 -0.354,1.16923 -1.66071,3.37358 -1.99981,3.37358 -0.11283,0 -0.20514,-0.35264 -0.20514,-0.78365 z"
     id="path37432" />
  <path
     style="opacity:0.421;fill:#ff0000;fill-opacity:0.419608;stroke:#000000;stroke-width:0.229008;stroke-opacity:0"
     d="m 188.20164,101.11827 c -0.94823,-0.57818 -1.3099,-1.241803 -0.99621,-1.827938 0.13025,-0.243372 1.11748,-0.974438 2.19385,-1.624594 3.54487,-2.141207 5.65295,-4.498477 7.44545,-8.325547 0.90256,-1.927026 1.81939,-4.87155 1.81939,-5.843222 0,-0.306921 0.0614,-0.496624 0.13648,-0.421563 0.21732,0.217326 -0.32921,4.684004 -0.82934,6.777967 -1.22084,5.111493 -3.81714,9.237136 -6.94019,11.028297 -1.39136,0.79799 -1.84633,0.83604 -2.82943,0.2366 z"
     id="path37434" />
  <path
     style="opacity:0.421;fill:#ff0000;fill-opacity:0.419608;stroke:#000000;stroke-width:0.229008;stroke-opacity:0"
     d="m 189.12004,82.91462 c -0.52596,-0.164459 -1.35039,-0.539619 -1.83206,-0.833691 -1.39399,-0.851064 -3.51194,-2.981704 -4.08319,-4.107665 -0.73531,-1.449329 -1.12178,-2.972304 -0.82864,-3.265445 0.28605,-0.286049 0.74847,0.0026 3.28636,2.051575 1.0321,0.833266 2.65355,1.885953 3.60321,2.339304 1.45781,0.695935 2.01872,0.836815 3.60251,0.904819 1.63816,0.07034 2.04158,0.0047 3.18372,-0.518216 0.71933,-0.329319 1.35411,-0.552521 1.41063,-0.496004 0.19176,0.19176 -1.1979,1.811313 -2.30579,2.687237 -1.80224,1.4249 -3.99864,1.875364 -6.03675,1.238086 z"
     id="path37436" />
  <path
     style="opacity:0.421;fill:#2117d1;fill-opacity:0.52156866;stroke:#000000;stroke-width:0.229008;stroke-opacity:0"
     d="m 67.234394,112.69084 c -0.01136,-0.24141 -0.07888,-0.3807 -0.150053,-0.30953 -0.07117,0.0712 -0.354567,-0.0742 -0.629771,-0.32314 -0.759849,-0.68721 -2.838645,-2.00988 -3.833563,-2.43918 -1.219582,-0.52624 -4.942752,-3.82356 -5.617564,-4.97504 -0.978838,-1.67026 -0.697085,-4.63579 1.178955,-12.408845 0.917488,-3.801451 1.017029,-5.957221 0.363263,-7.867193 -0.233093,-0.680977 -0.500185,-1.650119 -0.593538,-2.153647 -0.09335,-0.503528 -0.242576,-0.967269 -0.331605,-1.030534 -0.398341,-0.283068 -3.505327,-12.412592 -5.044935,-19.695181 -0.840434,-3.975385 -1.729554,-9.204626 -2.185057,-12.851127 -0.389262,-3.116207 -0.284631,-3.697392 1.01343,-5.629208 0.95517,-1.421514 1.897559,-2.155396 5.638472,-4.390937 1.270283,-0.759111 2.442252,-1.540033 2.604377,-1.735381 0.840034,-1.012179 1.432813,-0.126787 2.40118,3.586468 0.44991,1.725205 0.922156,3.410639 1.049436,3.74541 0.127279,0.334771 0.687761,2.493624 1.245515,4.797451 1.093301,4.515923 1.613381,6.045109 1.940251,5.704892 0.320837,-0.333937 1.496412,-6.047376 2.658828,-12.922225 0.585658,-3.46374 1.112313,-6.375 1.170344,-6.469466 0.225523,-0.367114 1.439821,-0.141548 2.742611,0.509464 2.360377,1.179495 5.514332,4.718259 6.897087,7.738594 0.790416,1.726496 0.727493,2.292107 -1.751088,15.740492 -1.137477,6.171756 -2.796545,15.343512 -3.686824,20.381679 -0.890279,5.038168 -1.719396,9.417939 -1.842483,9.732825 -0.123088,0.314885 -1.248293,5.433373 -2.500455,11.374419 -2.325445,11.03337 -2.700422,12.6623 -2.736813,11.88894 z"
     id="path37438" />
  <path
     style="opacity:0.421;fill:#2117d1;fill-opacity:0.521569;stroke:#000000;stroke-width:0.229008;stroke-opacity:0"
     d="m 94.764679,84.065876 -0.642542,-0.552445 -0.07006,-8.470058 c -0.07925,-9.581642 -0.03333,-9.926073 1.361052,-10.207634 1.777754,-0.358973 5.784481,-0.423699 8.580561,-0.138612 2.52449,0.257394 3.00458,0.371926 3.45748,0.824827 l 0.52593,0.525929 v 7.55639 c 0,4.497581 -0.0991,8.018408 -0.24478,8.697746 -0.44836,2.090634 -1.15172,2.308364 -7.47146,2.312854 -4.802274,0.0034 -4.86044,-0.0024 -5.496181,-0.548997 z"
     id="path39618" />
  <path
     style="opacity:0.421;fill:#2117d1;fill-opacity:0.521569;stroke:#000000;stroke-width:0.229008;stroke-opacity:0"
     d="m 129.50382,105.92275 c -2.52382,-0.31708 -3.48156,-0.66985 -4.37998,-1.61333 -1.11829,-1.17438 -1.56612,-2.60317 -1.75745,-5.60713 -0.0883,-1.385496 -0.16042,-15.60687 -0.16037,-31.603053 1e-4,-33.862929 -0.28697,-30.437501 2.57198,-30.689339 0.97859,-0.0862 2.19147,-0.24143 2.69528,-0.344953 3.39941,-0.6985 6.10072,-0.438127 10.80477,1.041446 4.09546,1.288154 5.43455,1.997143 7.30505,3.867706 2.81288,2.812981 3.72967,5.616667 3.9261,12.006699 0.2211,7.1924 -0.88762,11.789277 -3.48808,14.461952 -0.55148,0.566794 -1.10742,1.309626 -1.23542,1.650737 -0.20727,0.552344 -0.12567,0.752797 0.74577,1.832062 2.31299,2.86458 3.47795,5.055304 4.2978,8.082087 0.75236,2.777663 0.71406,7.660571 -0.0836,10.660435 -1.88489,7.088497 -5.75864,12.078781 -11.46524,14.769871 -0.90575,0.42713 -2.22786,0.9258 -2.93803,1.10815 -1.68252,0.43203 -4.96066,0.61258 -6.83855,0.37666 z m 10.40369,-21.170989 c 1.83522,-2.130806 3.33676,-3.958711 3.33676,-4.062011 0,-0.228864 -1.44778,-1.143557 -2.44734,-1.546207 -0.40138,-0.161687 -1.63802,-0.309939 -2.74809,-0.329448 l -2.01831,-0.03547 -0.0618,4.998577 c -0.0528,4.268812 -0.0133,4.98764 0.27011,4.923664 0.18253,-0.0412 1.83341,-1.8183 3.66863,-3.949106 z m -2.01188,-25.045608 c 0.35969,-0.350546 1.37524,-1.484133 2.25676,-2.519083 0.88153,-1.034949 1.68019,-1.881726 1.77481,-1.881726 0.0946,0 0.17204,-0.352781 0.17204,-0.783957 0,-1.515034 -1.78726,-2.792343 -3.65551,-2.612498 -0.61734,0.05943 -0.88709,0.246359 -1.24626,0.863633 -0.38715,0.665348 -0.47337,1.314925 -0.55475,4.179389 -0.10729,3.776958 -0.0118,3.986816 1.25291,2.754242 z"
     id="path39620" />
  <path
     style="opacity:0.421;fill:#2117d1;fill-opacity:0.521569;stroke:#000000;stroke-width:0.229008;stroke-opacity:0"
     d="m 158.12977,103.41153 -1.94656,-0.12909 -0.27334,-0.80152 c -0.20529,-0.60202 -0.27236,-7.014959 -0.26942,-25.763363 0.004,-26.308881 0.18104,-37.113654 0.62561,-38.206459 l 0.2641,-0.649206 5.2082,0.150351 c 2.86451,0.08269 5.49092,0.258239 5.83646,0.390103 0.44429,0.169547 0.69369,0.483272 0.85173,1.071375 0.13665,0.508568 0.2275,8.437789 0.23384,20.411775 0.006,10.769084 0.0934,19.889313 0.19488,20.267176 l 0.18449,0.687023 3.64806,0.114503 3.64806,0.114504 0.27333,0.801527 c 0.34848,1.021876 0.40916,19.175071 0.0682,20.402491 -0.14632,0.52675 -0.43785,0.91776 -0.81103,1.08779 -0.60667,0.27642 -13.76697,0.31428 -17.73661,0.051 z"
     id="path39622" />
  <path
     style="opacity:0.421;fill:#2117d1;fill-opacity:0.521569;stroke:#000000;stroke-width:0.229008;stroke-opacity:0"
     d="m 230.61069,105.37495 c -2.9163,-1.36668 -5.69687,-5.875711 -7.29603,-11.831419 -1.80413,-6.719006 -2.31708,-11.64019 -2.31479,-22.207653 0.002,-9.229887 0.15583,-11.128654 1.38808,-17.133155 1.92125,-9.361805 5.93919,-15.838178 11.12536,-17.932601 1.62531,-0.656377 4.40017,-0.71052 6.10248,-0.119072 1.68843,0.586625 4.21631,2.341183 6.04584,4.196313 l 1.53949,1.561034 -0.75759,8.073059 c -0.41667,4.440183 -0.80267,8.118143 -0.85777,8.173245 -0.0551,0.0551 -0.56154,-0.214796 -1.12542,-0.599773 -1.63294,-1.114866 -4.15086,-2.249584 -4.99179,-2.249584 -1.81276,0 -3.24564,1.396849 -4.13049,4.026622 -1.08752,3.232129 -1.58879,10.320788 -1.20034,16.974632 0.52413,8.978064 1.99122,11.858776 5.019,9.855087 l 0.89765,-0.594041 -0.11717,-8.34392 c -0.0644,-4.589158 -0.0489,-8.615732 0.0344,-8.947945 l 0.1516,-0.604023 h 4.45601 4.456 l 0.40436,0.617127 c 0.35708,0.544974 0.41328,1.368296 0.48071,7.041985 0.0877,7.380643 -0.28658,27.783492 -0.51386,28.010772 -0.0838,0.0837 -2.04063,0.19277 -4.34861,0.24226 l -4.19635,0.09 -0.13197,-0.76824 c -0.0726,-0.42254 -0.20894,-2.26252 -0.30301,-4.088856 -0.14561,-2.826845 -0.2009,-3.167373 -0.37186,-2.290076 -0.11045,0.566793 -0.35227,1.685917 -0.53737,2.486942 -1.2314,5.32893 -5.14499,8.12411 -8.90659,6.36129 z"
     id="path39624" />
</svg>
